<svg height="1456.345" viewBox="0 0 1353.619 1456.345" width="1353.619" xmlns="http://www.w3.org/2000/svg" xmlns:xlink="http://www.w3.org/1999/xlink"><clipPath id="a"><path d="m537.743 103.512c26.557-46 92.957-46 119.514 0l477.994 827.988c26.556 46-6.642 103.5-59.757 103.5h-955.988c-53.115 0-86.313-57.5-59.757-103.5z" transform="matrix(-.30901699 -.95105652 .95105652 -.30901699 1193.396 1121.537)"/></clipPath><g transform="translate(-824.121 334.808)"><path d="m537.743 103.512c26.557-46 92.957-46 119.514 0l477.994 827.988c26.556 46-6.642 103.5-59.757 103.5h-955.988c-53.115 0-86.313-57.5-59.757-103.5z" fill="#4e6ef1" transform="matrix(-.30901699 -.95105652 .95105652 -.30901699 1193.396 1121.537)"/><g clip-path="url(#a)" opacity=".07"><path d="m1038.594 564.382-3.55-5.99-63.23 37.472c-9.175-8.115-42.765-37.792-45.638-39.94-2.969-2.223-78.079-51.839-90.243-59.874 23.6-34.941 24.719-78.736 24.759-81.148l.008-.481-.121-.466c-.609-2.309-15.153-56.8-36.042-80.325-5.436-6.124-6.4-20.614-2.777-40.949l55.372 7.866 153.013 44.323 3.392-11.7-153.429-44.447-55.855-7.964c8.261-34.773 24.693-69.78 29.747-72.287 11.585-5.026 84.134-48.135 87.216-49.969l-3.558-5.985c-.75.446-75.246 44.714-86.428 49.566-9.485 4.114-26.393 45.922-33.9 77.688l-10.358-1.472c8.213-34.979 24.812-70.394 29.9-72.919 11.588-5.026 84.137-48.135 87.219-49.968l-3.558-5.985c-.75.446-75.246 44.714-86.431 49.566-9.548 4.142-26.615 46.476-34.045 78.32l-35.178-5.014-56.422 19.99-56.636-2.427-33.5-22.626c-19.987-13.471-42.916-28.961-65.63-44.358l20.8-14.39 85.119-128.445-3.142-26.421-12.1 1.438 2.612 21.979-81.35 122.76-22.755 15.742c-53.307-36.168-102.646-69.933-106.519-73.438a5.05 5.05 0 0 1 .864 1.1l-10.465 6.245c1.083 1.813 1.939 3.248 94.521 66.151 4.253 2.891 8.508 5.779 12.728 8.642l-63.753 82.258-71.678 44.029c-9.425-8.757-18.3-16.84-26.194-24.024-3.774-3.434-7.39-6.728-10.719-9.785l66.665-57.807.342-.3 31.039-45.665-24.482-18.318-4.172 5.575 19.154 14.33-14.657 21.566-14.254-18.671-5.534 4.225 15.664 20.514-8 11.779-2.432 2.107-19.864-33.141-5.972 3.58 20.5 34.194-59.147 51.283c-5.816-5.414-10.152-9.629-11.832-11.769-12.431-15.838-38.857-62.352-39.124-62.82l-13.627 7.73c1.108 1.954 27.274 48.007 40.428 64.764 3.8 4.85 14.017 14.146 29.477 28.219 6.746 6.139 14.508 13.209 22.865 20.957l-68.267 41.933-10.84 13.766c-21.73-35.279-37.351-60.176-38.809-61.269l-4.17 5.577a2.625 2.625 0 0 1 -.405-.368c1.9 2.241 17.779 27.748 38.784 61.9l-28.1 35.689-24.862 10.784 2.772 6.388 13.013-5.645-51.618 65.552 9.573 7.539 65.6-83.308 27.032-11.728 1.5-.974c19.746 32.217 41.823 68.425 60.557 99.239l-31.357 8.133-138.425 96.065 6.947 10.009 51.139-35.49 36.807 62.51 19.388 37.656-68.708 11.99c-2.362-5.879-8.375-20.733-14.712-35.505-17.109-39.884-19.68-40.35-22.165-40.8l-1.236 6.854a2.319 2.319 0 0 1 -1.05-.443c3.616 3.226 18.869 37.976 32.157 71.114l-46.559 8.123 1.2 6.861 47.383-8.266 6.01 33.053 36.613 27.4-32.889 124.344 6.73 1.78 32.481-122.825 94.387 37.5-2.4 13.307-85.544 180.448 6.292 2.981 85.94-181.281 2.319-12.834 45.824 18.207c-37.512 58.167-91.363 153.456-94.423 158.874l6.063 3.422c.99-1.753 97.066-171.766 122.319-197.913-12.038 22.107-21.148 40.262-26.295 53.612-36.492 58.21-82.148 139-84.958 143.973l6.063 3.422c.627-1.105 39.131-69.243 73.8-125.937-.6 6.554-1.385 13.34-2.155 19.955-3.492 29.946-6.788 58.235 4.638 74.7 12.779 18.414 79.8 92.094 82.646 95.221l11.588-10.545c-.692-.758-69.168-76.034-81.362-93.609-8.053-11.603-4.953-38.218-1.953-63.956.957-8.216 1.949-16.714 2.594-24.847.793-10.036 13.693-36.173 30.052-66.156a44.6 44.6 0 0 1 4.072-4.306c16.208-14.39 77.4-69.576 121.425-111.925 2.513 5.955 4.167 10.55 4.7 13.325 1.727 9.065-10.248 60.033-19.869 100.985-20.121 85.63-28.883 127.3-22.342 139.388 2.113 3.905 7.539 12.907 14.9 24.855l-55.974 58.988 5.053 4.794 54.7-57.651c15 24.25 36.077 57.749 54.083 86.254-4.364 4.774-7.128 7.723-7.836 8.327.06-.05.113-.086.151-.113l3.971 5.721c.571-.4 3.258-3.215 7.546-7.869 17.092 27.04 30.628 48.347 32.094 50.648l13.222-8.4c-.383-.6-15.505-24.4-34.37-54.259 24.379-26.944 67.79-75.775 99.914-111.99l69.875 62.616c-22.745 26.335-57.92 66.35-62 69.09a2.282 2.282 0 0 1 .614-.267l1.956 6.683c1.546-.453 3.3-.967 35.672-37.686 12.1-13.733 24.049-27.511 28.944-33.171l87.947 78.809 4.646-5.187-52.051-46.642 52.622-51.89 30.349 28.445 7.143-7.622-77.152-72.31-.237-.219-45.643-33.295 24.379-24.7 84.807 82.34 4.852-4.993-89.767-87.166-29.961 30.369-.028-.02-47.86-55.19 33.773-20.861 36.724 1.352 21.508-10.6.008.005.01-.013 22.176-10.928 65.036 41.08 3.719-5.889-68.334-43.16-15.8 7.785 71.63-117.087c14.181 36.86 27.868 71.587 28.015 71.96l6.479-2.556c-.156-.4-15.941-40.441-31.167-80.171-21.805-56.888-27.307-73.562-28.556-78.356l28.954-17.16 32.058 105.1 6.66-2.032-32.551-106.719zm-73.073 35.211-71.943 42.634-29.865-38.862 38.287-12.716 13.426-33.6c3.754 2.508 6.139 4.117 6.579 4.447 2.058 1.544 25.933 22.553 43.516 38.097zm-56.021-46.487-12.766 31.955-44.515 14.78 35.324 45.96-9.082 5.383-35.576 21.086-.655.388-11.784 17.029-27.775 10.507-6.156 3.777-45.015-134.4c19.048-18.356 38.25-34.682 54.544-44.57a94.648 94.648 0 0 0 25.806-23.3c18.808 12.418 57.619 38.075 77.65 51.405zm-268.508 141.456c10.437-10.59 18.049-18.93 21.05-23.477 10.054-15.223 46.1-58.854 83.923-96.12l44.457 132.741-104.84 64.275zm-242.518 100.493-51.006-28 3.968-10.047 49.84 22.533zm4.688-25.962-.609 3.381-48.553-21.951 4.353-11.026 45.895 8.291zm-38.194-46.353c16.034 1.156 33.524 3.613 40.242 6.083l-.607 11.953-43.643-7.884zm21.224-4.822c-7.569-1-15.042-1.664-19.413-2.012l7.655-42.377 33.247 6.7-2.108 41.458c-4.12-1.287-10.231-2.558-19.382-3.769zm35.334-173.148 95.007-24.641q2.447 4.763 4.809 9.475l-1.712 14.669-54.846 50.044c-18.61-2.722-38.847-5.952-45.4-7.438zm3.039-77.21c-.131-.161-13.189-16.263-26.35-32.033-7.743-9.279-14.012-16.631-18.633-21.858-2.629-2.974-4.615-5.172-6.2-6.8l36.077-23.45c35.009 33.919 73.312 74.79 92.992 110.344q4.238 7.656 8.282 15.279l-88.561 22.966 3.228-63.408zm327.2-76.142c-8-.967-26.446-3.223-31.159-3.923a21.563 21.563 0 0 1 -1.637-2.8l37.356-30.734zm-33.227 2.795c3.238.587 27.9 3.576 32.386 4.117l-4.479 36.822-14.974 11.808-13.124-12.879-66.516 31.912-13.186-19.537 8.561-2.724 66.338-54.579c2.686 4.636 4.003 4.883 4.993 5.059zm-127.492 109.126 26.766 33.267-8.717 6.874-30.095-32.091zm32.232 28.954-26.053-32.378 52.2-25.043 16.208 24.016zm-33.247-36.649-51.1 34.148q-4.022-8.185-8.208-16.324l84.351-59.509 16.654-5.3 13.756 20.38zm-16.9 19.668 30.472 32.5-41.259 32.544c-.9-1.629-1.622-2.918-2.128-3.83-5.451-13.108-11.615-26.738-18.21-40.413zm35.254 37.6 1.289 1.375.2.214 73.156 55.672c-20.939 23.5-37.575 44.359-43.933 53.987-2.85 4.318-10.286 12.429-20.526 22.795-16.916-34.785-41.34-79.607-52.816-100.423zm79.315 52.056-73.141-55.661-.685-.728 83.429-65.8 40.864 70.593c-17.347 16.106-34.914 34.379-50.467 51.596zm-16.586-110.4-15.344-22.737 61.188-29.354 9 8.833zm-29.84-61.732-9.732 3.1-18.8-27.861c29.734-16.538 61.12-33.917 88.148-48.838 2.875 7.843 5.255 13.894 7.247 18.592zm-16.646 5.3-15.037 4.787-84.552 59.652q-4.4-8.3-8.878-16.394c-3.2-5.781-6.844-11.656-10.817-17.58 11.585-7.015 53.748-30.676 101.287-57.129zm-24.054-31.26c-68.84 38.308-91.464 51.293-99.151 56.022-7.785-11.069-16.686-22.274-26.237-33.38l88.455-81.742 39.081 57.9q-1.073.601-2.148 1.196zm-73.564 134.235c7.239 14.964 13.718 29.4 19.267 42.86l-13.461 25.57-11.577 64.084-10.457 6.38zm55.961 110.412c8.886 16.943 17.25 33.36 23.862 47.106-23.648 23.185-55.82 53.073-83.1 78.046 2.724-4.721 5.4-9.346 7.987-13.823 30.245-52.313 48.893-84.978 51.041-96.865a53.4 53.4 0 0 0 .21-14.464zm38.8 42.062c11.507-11.593 19.947-20.75 23.145-25.592 11.129-16.855 54.108-68.521 96.1-107.823l2.515 7.513c-39.179 38.252-76.915 83.852-87.292 99.567-3.764 5.7-15.5 18-31.162 33.388q-1.577-3.419-3.31-7.053zm197.559-355.329c18.794 21.166 32.894 71.53 34.385 77-.237 6.368-3.915 75.045-51.283 103.794-15.979 9.7-34.695 25.459-53.358 43.278l-2.457-7.335c14.906-13.574 29.5-25.318 42.3-33.083 52.693-31.985 54.594-106.924 54.649-110.1l.008-.481-.123-.466c-.609-2.309-15.15-56.8-36.039-80.325-5.381-6.058-6.383-20.3-2.9-40.3l10.346 1.47c-4.089 22.927-2.604 38.578 4.472 46.548zm-341.808-22.536 65.587-84.628c36.55 24.777 68.025 45.99 68.4 46.242l36.349 24.55 62.442 2.677 55.83-19.781 31.479 4.472c-3.948 22.586-2.417 38.013 4.593 45.907 18.794 21.168 32.894 71.532 34.385 77-.237 6.368-3.918 75.045-51.283 103.794-12.7 7.707-27.123 19.245-41.881 32.6l-40.594-70.132 50.18-39.579 11.112-91.3 2.075-1.71 4.729-26.182-11.99-2.168-3.935 21.786-41.2 33.891c-2.543-6.146-5.333-13.39-7.763-20.123l-1.382-3.84-3.573 1.972c-.473.262-45.29 25-92.255 51.112l-43.956-65.126-94.262 87.1c-20.264-23.027-42.964-45.446-63.815-65.094zm-153.864 94.511 69.284-42.556q5.578 5.239 11.374 10.787l-87.194 56.676-5.728-9.332zm-13.558 29.475-14.654 6.358 11.346-14.408q2.209 3.6 4.474 7.292zm10.669 1.372 46.66-30.331c7.012 6.783 33.806 39.106 50.89 60.161l-3.2 62.933-32.619 8.459c-20.551-33.812-42.485-69.813-61.735-101.222zm93.7 105.522-6.431 126.592-36.412-7.33-26.026 5.449 18.152-55.38-18.958-49.324 4.467-3.1zm-75.561 24.1 17.454 45.419-18.63 56.845-32.386 6.781-35.846-60.883zm-30.108 115.432 58.492-12.25-7.624 42.2-32.527 5.673zm-55.682 55.608 67.916-11.849-4.62 29.7-24.449 37.4-33.335-24.94zm44.978 58.6 24.968-38.2 5.215-33.519 28.866-5.036-18.409 46.615 58.431 32.078-6.307 34.922zm111.958-30.23 2.143-42.085 1.851-.758a5.956 5.956 0 0 0 -1.695-2.306l2.538-49.832.106-.534-.078-.015 1.081-21.335 47.372 7.979 1.158-6.869-48.173-8.113 2.664-52.323c6.572 1.564 19.753 3.656 46.386 7.526l1.632.234 51.361-46.855-15.268 130.653-77.953 118.461-8.387 43.56-19.33-7.68zm62.911 52.517c-5.555 4.935-15.339 18.517-27.07 36.432l-22.515-8.944 8.377-43.5 77.218-117.346 18.562-11.326 11.94-66.106 10.218-19.406c12.982 32.864 19.8 58.887 17.651 70.772-1.77 9.8-26.96 53.368-49.185 91.809-11.651 20.154-22.362 38.781-31.792 55.609-5.861 5.279-10.481 9.412-13.404 12.005zm28.687-7.249c3.52-6.27 7.106-12.59 10.686-18.857 29.238-26.579 69.034-63.248 97.648-91.253q1.707 3.641 3.188 6.934c-36.747 35.392-86.799 80.932-111.522 103.175zm90.819 149.984c-.576-1.644-1.768-9.624 5.182-45.288 4.427-22.724 10.87-50.4 17.253-77.578l44.2 7.984 1.239-6.854-43.845-7.919c13.7-58.3 21.951-94.652 19.728-106.317-.871-4.557-3.83-12.318-8.11-22.009q2.685-2.632 5.232-5.157l50.238 87.229 33.124 5.983 32.756 37.774-144.785 152.59c-5.993-9.768-10.371-17.06-12.212-20.439zm132.28-95.984 64.686 65.776c-7.574 8.553-15.634 17.648-23.923 26.992l-69.606-62.374zm-62.435 208.516c-18.393-29.135-39.5-62.709-53.856-85.96l82.654-87.108 69.779 62.53c-36.187 40.785-75.825 85.307-98.577 110.536zm173.624-144.964 51.8 37.782 41.483 38.88-52.731 52-105.792-94.798c10.608-11.965 19.718-22.249 26.1-29.46l2.155-2.432-69.412-70.58 24.507-25.826 81.5 93.987zm-74.387-101.73 26.207-23.346 34.82 37.046-32.008 19.771zm102.636 12.262-34.589-1.271-41.4-44.044-31.2 27.793-34.8-40.128-31.973-5.776-1.163-2.019 116.686-71.543 29.185-11.041 12.155-17.563 34.184-20.257 45.542 104.2-44.489 72.718zm98.278-140.053.03.076-31.25 51.079-43.938-100.529 46.907-27.8c.274.911.587 1.893.929 2.961 1.387 4.341 3.563 10.618 6.471 18.66 4.884 13.504 11.897 32.195 20.851 55.556zm-211.791 26.791-5.9 3.694-27.456-43.875 5.9-3.694zm62.724-245.128-36.44-34.4 14.473-38.615 6.519 2.445-12.849 34.282 33.078 31.225z" fill="#fff" transform="translate(1013.831 -244.771)"/></g></g></svg>