<svg height="560.334" viewBox="0 0 1101.331 560.334" width="1101.331" xmlns="http://www.w3.org/2000/svg"><g fill="#f1f3fb" opacity=".56"><path d="m335.867 263.675a36.441 36.441 0 0 0 -2.382-9.119 4.128 4.128 0 0 0 -2.1-2.584 4.324 4.324 0 0 0 -2.082-.023l-10.69 1.636a4.1 4.1 0 0 0 -2.439.948c-1.392 1.464-.021 3.822-.064 5.842-.048 2.272-2.066 4.115-4.255 4.725a16.084 16.084 0 0 1 -6.761-.084l-14.948-2.323a24.646 24.646 0 0 0 11.308-7.546c1.967-2.33 3.014-6.681.171-7.784a6.98 6.98 0 0 0 -2.6-.208c-6.772.053-12.1-5.6-18.442-7.983a20.39 20.39 0 0 0 -22.948 6.841l7.963.384a3.534 3.534 0 0 1 2.121.566c1.745 1.434-.424 4.188-.179 6.433.319 2.917 4.192 3.54 7.112 3.835s6.623 2.667 5.219 5.244c-14.674 5.054-29.606-9.88-45.017-8.042-3.9.465-7.583 2-11.391 2.961-23.262 5.886-47.311-9.818-71.075-6.492a90.251 90.251 0 0 0 -15.515 4.092c-3.234 1.062-6.608 2.21-8.958 4.672s-3.244 6.675-1.018 9.25a52.061 52.061 0 0 1 -18.244-1.734 10.221 10.221 0 0 1 5.255 9.008 108.25 108.25 0 0 0 -27.731 8.456 46.708 46.708 0 0 0 5.74 7.646l-12.129 7.792c4.1 1.032 6.216 6.62 3.833 10.11 4.249-1.89 6.882-6.78 11.426-7.772 2.977-.65 6.005.568 8.829 1.712s5.927 2.253 8.851 1.395 5.079-4.649 3.222-7.064a151.248 151.248 0 0 1 38.419-6 4.818 4.818 0 0 1 2.91.552c1.694 1.175 1.248 3.713 1.157 5.773s1.514 4.766 3.354 3.838c-2.165 1.878-.314 5.413 1.763 7.387s4.582 4.7 3.31 7.268c-.332.67-.9 1.207-1.214 1.883-.943 2 .554 4.325 2.32 5.651s3.928 2.253 5.155 4.089.67 5.05-1.524 5.307l-6.234-7.915a16.229 16.229 0 0 0 -4.211 7.98c6.61 5.4 7.6 16.4 2.071 22.9-2.828 3.323-6.85 5.342-10.36 7.933s-6.758 6.282-6.749 10.645c.015 7.538-.6 14.541 2.224 21.53a331.66 331.66 0 0 0 18.006 37.565c1.781 3.186 4.083 6.678 7.692 7.226q-6.841-16.653-12.316-33.824c2.377.009 5.125.2 6.519 2.124 1.154 1.595.906 3.763 1.265 5.7a17.654 17.654 0 0 0 2.251 5.293l21.777 38.792c1.805 3.216 3.876 6.668 7.326 7.97 2.206.833 4.758.676 6.789 1.875 1.591.94 2.663 2.607 4.286 3.493 4.588 2.5 10.967-2.3 15.254.691 1.226.854 2.006 2.212 3.135 3.19 3.96 3.429 10.455 1.135 15.026 3.693 2.946 1.649 4.473 4.945 6.044 7.933 3.936 7.484 10.3 14.816 18.739 15.412 2.65.187 5.356-.315 7.946.274s5.139 2.85 4.724 5.473c-.713 4.5 1.509 9.422.913 13.937-1.087 8.223-12.751 11.837-13.753 20.071-.219 1.8.124 3.664-.305 5.428-.526 2.163-2.15 3.924-2.728 6.073-1.094 4.074 1.825 8.128 5.031 10.869s7.031 5.1 8.784 8.941c1.853 4.055.943 8.784 1.545 13.2 1.316 9.644 9.645 16.794 18.218 21.4 2.612 1.4 5.416 2.764 7.107 5.2 2.206 3.18 1.987 7.373 2.723 11.173 1.8 9.306 9.639 16.974 9.861 26.451.158 6.736-3.586 12.847-5.823 19.2a44.782 44.782 0 0 0 3.657 37.14c1.673 2.825 3.674 5.489 4.858 8.552 2.112 5.466 1.427 11.679 3.374 17.205 2.575 7.307 9.65 13.342 8.973 21.059 3.212 6.67 10.3 9.948 17.437 11.933l12.782 3.558c2.447.681 5.005 1.368 7.5.875s4.871-2.563 4.806-5.1c-6.268-1.414-12.738-2.917-17.9-6.737s-8.707-10.622-6.746-16.741c.909-2.838 2.843-6.114 1-8.459-1.053-1.342-2.978-1.693-4.165-2.918-1.852-1.91-1.216-5.12.116-7.423s3.256-4.362 3.793-6.968a7.271 7.271 0 0 0 -3.408-7.565 18.072 18.072 0 0 0 6.327-4.059c1.664-1.9 2.432-4.829 1.124-6.989 3.887.493 8.475.734 11.027-2.239 2.037-2.374 1.9-5.924 1.092-8.947s-2.166-5.96-2.208-9.088a165.614 165.614 0 0 0 26.868-.911 17.422 17.422 0 0 0 -8.169-10.23c4.038-.683 7.717-5.518 8.993-9.41s.95-8.131.162-12.15a6.52 6.52 0 0 1 -.121-3.183c.455-1.449 1.878-2.334 3.2-3.09l20.045-11.512a11.674 11.674 0 0 0 3.205-2.366c2.1-2.467 1.789-6.191.714-9.247s-2.8-5.93-3.212-9.143c-1.239-9.609 9.048-16.5 12.519-25.55 1.362-3.55 1.64-7.408 1.9-11.2.283-4.074.3-8.806-2.824-11.431-3-2.517-7.684-1.955-10.821-4.3-2.877-2.146-3.869-6.314-7.012-8.048-2.854-1.574-6.432-.573-9.606-1.313-5.589-1.3-9.106-7.745-14.813-8.341-3.22-.336-6.865 1.238-9.5-.638-2.326-1.653-2.419-4.974-2.862-7.793a21.763 21.763 0 0 0 -17.565-17.622c-3.32-.533-6.935-.33-9.759-2.155-2.86-1.848-4.172-5.307-6.418-7.866-3.621-4.124-9.324-5.589-14.667-6.845l-21.731-5.109c-3.858-.907-8.83-1.388-10.9 1.991a15.617 15.617 0 0 0 -1.289 4.055 12.559 12.559 0 0 1 -11.81 8.89 13.967 13.967 0 0 0 -8.236-6.373c-2.2-.614-4.562-.682-6.664-1.586a9.36 9.36 0 0 1 -4.062-12.985 11.652 11.652 0 0 0 -1.991-14.015c-3.7-3.318-9.041-4.119-14-3.787-1.3-2.832.872-6.027 3.211-8.085s5.178-4.081 5.687-7.154c.8-4.834-5.367-8.506-10.05-7.064s-7.672 5.99-9.648 10.474c-1.134 2.573-2.1 5.282-3.886 7.451s-4.668 3.723-7.392 3.026c-3.856-.986-5.345-5.567-6.2-9.455-1.145-5.216-2.3-10.5-2.057-15.839s2.038-10.812 5.972-14.424c6.41-5.885 16.244-5.308 24.895-4.369-2.044-2.3-1.539-6.184.648-8.351a9.495 9.495 0 0 1 8.606-2.114 11.859 11.859 0 0 1 6.667 3.986c2.458 3 3.157 7.044 5.016 10.446s6.036 6.3 9.456 4.479c2.954-1.577 3.423-5.673 2.688-8.939s-2.3-6.443-2.03-9.781c.508-6.369 7.11-10.2 12.936-12.825s12.5-6.151 13.42-12.472a11.373 11.373 0 0 1 .691-3.625 7.11 7.11 0 0 1 2.608-2.453c17-11.236 34.288-22.61 53.721-28.75 1.011-.319 1.13.036 2.16-.215 1.442-.833.487-3.139-.9-4.068s-3.231-1.641-3.581-3.269c-.258-1.2.447-2.372.631-3.583.45-2.975-3.108-5.721-5.872-4.532-1.561-2.067 1.528-4.469 4.025-5.157a109.312 109.312 0 0 1 22.965-3.752 4.137 4.137 0 0 1 2.613.445c1.3.9 1.138 2.976.213 4.266s-2.363 2.1-3.515 3.191a9.593 9.593 0 0 0 -2.488 9.649c4.055 2.062 8.463 4.186 12.953 3.459s8.476-5.772 6.366-9.8c-1.966-3.753-7.87-4.6-8.885-8.712-1.189-4.815 5.628-9.1 4.092-13.814-.673-2.066-2.731-3.282-4.311-4.773a12.951 12.951 0 0 1 -2.834-14.361 16.34 16.34 0 0 1 -14.331-4.485c-3.428-3.459-6.162-8.916-11.03-8.761-4.467.142-8.314 5.353-12.491 3.763-1.027-.391-2.111-1.187-3.106-.721a2.567 2.567 0 0 0 -1.159 1.923c-1.061 5.075.764 10.856-2 15.241-3.01 4.772-9.971 5.433-13.62 9.736-1.981 2.336-2.748 5.483-4.568 7.946s-5.684 4.028-7.869 1.882a10.846 10.846 0 0 0 -2.947-13.189 28.941 28.941 0 0 0 -6.508-3.166 38.6 38.6 0 0 1 -7.271-4.052 7.162 7.162 0 0 1 -2.669-2.856 6.508 6.508 0 0 1 .183-4.516 18.467 18.467 0 0 1 14.7-12.18c2.909-.4 6.294-.256 8.22-2.473 1.019-1.173 1.553-2.946 3.032-3.422a4.472 4.472 0 0 1 2.8.345l10.857 3.822a7.621 7.621 0 0 0 3.868.64 2.622 2.622 0 0 0 2.267-2.756c-.347-1.8-3.121-2.668-2.869-4.487a3 3 0 0 1 .909-1.527 38.817 38.817 0 0 1 30.787-12.158c1.37 2.251-.8 4.916-2.6 6.837s-3.253 5.354-1.072 6.833a5.98 5.98 0 0 0 2.891.651 25.242 25.242 0 0 1 7.695 2.334q5.628 2.449 11.04 5.359c-.319-2.379-.623-4.885.279-7.109s3.464-3.969 5.7-3.1c2.157.835 3.263 3.691 5.562 3.953 3.066.349 4.275-4.18 2.995-6.987s-3.816-5.158-4.027-8.236c-.143-2.077.647-4.652-1.011-5.91a4.516 4.516 0 0 0 -1.957-.686l-41.419-7.622c-2.46-.453-6.013-.106-6.122 2.393-.061 1.395 1.185 2.774.633 4.057-.589 1.369-2.523 1.243-3.933 1.727-2.186.751-3.283 3.347-3.073 5.649a15.72 15.72 0 0 0 2.594 6.366c-2.7-1.12-6.779-1.329-9.473-2.454z" transform="translate(-79.792 -212.27)"/><path d="m291.126 229.089a13.413 13.413 0 0 0 -14.733 4.412c-.682.9-1.255 2.136-.684 3.108.819 1.394 2.9.843 4.442.345a11.179 11.179 0 0 1 7.016-.167c1.444.5 2.736 1.372 4.186 1.849a4.215 4.215 0 0 0 4.3-.628c1-1.015 1.058-2.593 1.06-4.015a3.229 3.229 0 0 0 -.823-2.654 4.219 4.219 0 0 0 -1.9-.563 6.554 6.554 0 0 1 -3.836-2.241" transform="translate(-68.1 -212.844)"/><path d="m304.54 225.127a3.412 3.412 0 0 0 -3.3 4.805 13.829 13.829 0 0 0 5.514.36 4.713 4.713 0 0 0 3.854-3.533 8.872 8.872 0 0 1 -6.282-1.2" transform="translate(-66.578 -213.041)"/><path d="m352.417 218.829a63.428 63.428 0 0 0 -14.139 4.8 10.623 10.623 0 0 1 6.785 10.67 5.556 5.556 0 0 0 .064 2.638c.519 1.259 2.024 1.731 3.347 2.054a22.066 22.066 0 0 0 7.341.937 7.478 7.478 0 0 0 6.076-3.713 26.474 26.474 0 0 1 1.264-2.987c3.171-4.829 12.591 1.01 16-3.658 1.2-1.644 1.09-4.119 2.653-5.422a5.96 5.96 0 0 1 2.727-1.041 191.522 191.522 0 0 1 20.716-2.951c3.295-.287 7.59-1.47 7.617-4.777a57.384 57.384 0 0 0 -36.6 4.924c-4.081 2.044-9.477 6.343-13.408 3.633-1.472-1.014-1.4-3.746-3.424-4.887-2.079-1.161-4.821-.687-7.019-.22z" transform="translate(-64.347 -213.687)"/><path d="m390.035 226.454 5.826 1.119a7.549 7.549 0 0 0 -7.861 8.182c5.456 1.823 11.4.049 17.151.291s12.434 4.347 11.453 10.015c-.3 1.714-1.287 3.426-.772 5.088.361 1.164 1.388 1.991 1.967 3.063 1.208 2.235.242 5.061-1.283 7.093s-3.575 3.652-4.914 5.811c-3.33 5.369-1.438 12.311.546 18.309a16.142 16.142 0 0 0 3.1 6.2c2.939 3.124 7.727 3.4 12.016 3.459 3.121.046 6.7-.109 8.671-2.527 2.577-3.157.775-8.084 2.472-11.789 1.541-3.365 5.467-4.809 9.024-5.833 6.517-1.876 13.158-3.471 19.318-6.3 7.65-3.519 14.8-9 23.208-9.455 2.359-.127 4.776.151 7.049-.495s4.431-2.611 4.259-4.967c-.147-2.013-1.85-3.491-3.181-5.009s-2.376-3.851-1.153-5.457l22.039-4.117c-1.562-4.258-2.779-9.865.811-12.636 1.3-1 3.029-1.4 4.132-2.608 1.88-2.06.934-5.609-1.235-7.361s-5.1-2.159-7.883-2.39c-9.664-.8-19.383-.272-29.065.258l-56.774 3.102c-3.81.209-8.209-.11-11.7 1.19-2.958 1.1-5.062 3.121-8.445 3.83-6.25 1.314-13.124.427-18.776 3.934z" transform="translate(-61.378 -213.722)"/><path d="m488.537 269.429a2.344 2.344 0 0 0 -1.7.385 2.141 2.141 0 0 0 -.552 1.308 8.635 8.635 0 0 0 1.254 6.181 6.052 6.052 0 0 0 5.54 2.656c2.623-.335 4.556-2.573 6.968-3.665 3.717-1.682 19.5-4.3 8.583-10.2-3.763-2.033-6.195-.238-9.161 1.1a20.844 20.844 0 0 1 -10.937 2.237z" transform="translate(-55.511 -210.647)"/><path d="m578.841 222.8a6.235 6.235 0 0 0 -3.033 2.64 2.664 2.664 0 0 0 1 3.534 3.975 3.975 0 0 0 1.487.236l5.184.155c2.2.066 4.954.535 5.545 2.657.439 1.576-.544 3.6.643 4.727a3.343 3.343 0 0 0 1.764.688 12.018 12.018 0 0 0 5.224.169c3.772-1.012 1.79-3.314 2.978-5.364 1.818-3.137 1.5-1.238 4.706-3.036 2.365-1.328 5.422-3.736 3.448-7.12-3.433-5.879-23.879-1.81-28.946.714z" transform="translate(-50.173 -213.402)"/><path d="m676.518 219.834-3.011.4c-6.789.906-13.616 1.82-20.154 3.859a33.545 33.545 0 0 0 8.827 2.166 27.112 27.112 0 0 1 4.944.7c2.888.86 5.8 3.08 8.588 1.943 1.73-.705 2.294-2.506 3.727-3.461.99-.659 4.743-1.726 5.162-2.391 3.392-5.375-5.476-3.563-8.083-3.216z" transform="translate(-45.521 -213.391)"/><path d="m688.467 232.87a56.46 56.46 0 0 0 -11.109 8.136c-1.414 1.33-2.859 2.983-2.731 4.92.17 2.575 2.913 4.068 5.289 5.074l9.624 4.075c1.167-1.646.1-3.917-1.108-5.534s-2.64-3.488-2.107-5.434c.608-2.221 3.316-2.977 5.586-3.36 3.7-.623 13.679-.573 12.479-6.535-1.413-7.025-12.21-3.418-15.923-1.342z" transform="translate(-44.251 -212.744)"/><path d="m685.9 610.109c-.916 2.652-1 5.777.582 8.093 1.778 2.6 5.337 3.567 8.416 2.908a15.163 15.163 0 0 0 7.814-5.024 26.912 26.912 0 0 0 4.495-6.893 53.807 53.807 0 0 0 3.328-12.193l2.988-15.689c.668-3.506.642-14.256-5.8-10.754-1.76.957-5.837 8.511-7.682 10.653-3.325 3.861-3.765 7.607-5.516 12.285-2.194 5.863-6.601 10.746-8.625 16.614z" transform="translate(-43.616 -192.442)"/><path d="m1007.56 683.761a46.975 46.975 0 0 1 -6.124-2.915 51.617 51.617 0 0 0 -3.1 16.919l14.429-8.165c2.171-1.228 4.631-2.935 4.584-5.429a1.717 1.717 0 0 0 -.8-1.562 1.945 1.945 0 0 0 -1.012-.119c-2.14.178-4.09 1.231-6.109 1.963s-4.379 1.119-6.231.033" transform="translate(-24.909 -185.811)"/><path d="m1080.188 688.456a31.24 31.24 0 0 0 -4.627 1.661c-3.311 1.685-5.564 4.885-8.544 7.1-2.851 2.123-6.284 3.289-9.654 4.423-.991.876-.536 2.641.54 3.411a6.692 6.692 0 0 0 3.811.857c3.5.077 7.189.111 10.255-1.58a32.357 32.357 0 0 0 4.828-3.832c3.585-2.991 7.891-4.965 12.153-6.872a13.946 13.946 0 0 0 4.236-2.533c2.678-2.638 2.866-6.709-1-7.607-3.118-.723-9.031 4.016-11.998 4.972z" transform="translate(-21.415 -185.658)"/><path d="m1111.319 668a12.037 12.037 0 0 0 -3.683-9.863c-.04 3.633-.15 7.5-2.193 10.506-1.456 2.14-3.738 3.586-5.333 5.625s-2.3 5.27-.432 7.059a7.01 7.01 0 0 0 4.155 1.431c3.724.438 8.034.683 10.646-2.008 1.425-1.468 2.119-3.643 3.857-4.723a4.693 4.693 0 0 0 1.693-1.211c.718-1.141-.423-2.645-1.707-3.056s-2.7-.218-3.989-.608-2.474-1.841-1.812-3.016" transform="translate(-18.92 -187.168)"/><path d="m1057.492 542.477a16.737 16.737 0 0 1 -5.973.352c-3.315-.61-5.9-3.108-8.572-5.157a37.809 37.809 0 0 0 -22.091-7.718c-7.272-.137-14.613 1.833-21.756.458.467 2.6 2.688 4.542 5.058 5.7s4.985 1.739 7.367 2.873a17.588 17.588 0 0 1 8.52 8.863c.767 1.79 1.25 3.738 2.411 5.3 2.375 3.2 6.875 3.9 10.847 3.635 5.179-.341 10.588-1.83 15.406.1 3.686 1.476 6.323 4.7 9.4 7.21s7.412 4.37 10.946 2.56a18.1 18.1 0 0 1 -12.52-17.411c3.466.319 13.448.2 12.911-5.694-.455-4.99-8.976-1.61-11.954-1.071z" transform="translate(-24.863 -194.827)"/><path d="m1017.256 581.05c.615-3.375 3.981-6.356 2.933-9.622-.725-2.259-3.344-3.374-5.716-3.43s-4.7.651-7.074.717a34.486 34.486 0 0 0 -4.632.066c-4.708.774-7.61 5.708-12.046 7.463-2.7 1.067-5.729.863-8.534 1.6-6.369 1.674-10.4 7.693-14.851 12.545a53 53 0 0 1 -26.9 15.688c-3.621.839-7.514 1.375-10.393 3.727-3.812 3.115-4.75 8.454-5.6 13.3a219.712 219.712 0 0 1 -10.7 39.265l15.123 1.931c2.875.367 5.855.726 8.625-.125a25.04 25.04 0 0 0 5.673-3.022 56.636 56.636 0 0 1 22.127-7.987c3.96-.544 8.112-.643 11.829.829s6.9 4.81 7.216 8.8a9.29 9.29 0 0 1 9.286 2.258 16.14 16.14 0 0 1 4.433 8.85c.4 2.069.8 4.548 2.717 5.416 1.566.708 3.363-.055 5.077-.192 5.814-.465 10.639 6.314 16.354 5.147 6.129-1.252 7.634-10.431 13.613-12.27 3.434-1.056 8.251.228 9.9-2.966 1.45-2.816-1.442-6.065-1.144-9.217.367-3.882 4.946-5.53 8.476-7.186 12.17-5.71 17.945-22.09 12.048-34.171-3.494-7.158-10.37-12.792-11.639-20.655-.977-6.05 1.408-13.1-2.449-17.867-1.962-2.422-5.284-3.76-6.452-6.65-.735-1.82-.439-3.884-.835-5.806s-2.072-3.933-3.97-3.434c-5.51 1.446-7.267 18.466-10.217 22.6-4.489 6.283-13.698 2.143-12.278-5.602z" transform="translate(-29.963 -192.794)"/><path d="m915.764 547.876c-1.883-.528-3.939-1.048-5.743-.294s-2.858 3.4-1.41 4.717c11.327-.441 22.724-.879 33.954.659 12.94 1.772 25.746 6.162 38.742 4.871a197.183 197.183 0 0 0 -22.6-5.244l-12.723-2.43a98.4 98.4 0 0 0 -10.332-1.6c-7.257-.596-12.752 1.322-19.888-.679z" transform="translate(-30.31 -193.796)"/><path d="m926.635 511.382c-.94-.079-2.105-.146-2.592.662-.465.772.067 1.793-.183 2.659-.341 1.183-1.891 1.486-3.112 1.325s-2.542-.547-3.624.042a3.071 3.071 0 0 0 -1.187 3.489 8.983 8.983 0 0 0 2.094 3.339 34.111 34.111 0 0 0 5.434 5.451c3.893 2.874 9.167 4.258 11.619 8.43a5.594 5.594 0 0 0 1.552 2.089c1.177.746 2.712.178 3.98-.4l4.443-2.03a5.047 5.047 0 0 0 2.077-1.412c1.015-1.377.392-3.335-.46-4.819s-1.942-3.019-1.76-4.72c.326-3.033 4.225-4.193 5.829-6.787 1.616-2.616.564-5.985.75-9.055.218-3.589 2.473-8.258-1.155-10.939-3.084-2.279-6.031-.173-8.245 2.343-4.67 5.303-6.877 11.051-15.46 10.333z" transform="translate(-29.841 -196.752)"/><path d="m951.514 460.6c1.517 2.9 4.679 4.637 6.332 7.465 1.793 3.065 1.588 7.026 3.533 10 2 3.048 6.011 4.667 7.13 8.134 1.222 3.785-1.55 8.386.659 11.694a4.909 4.909 0 0 0 7.2.662 5.282 5.282 0 0 0 -.218-7.369c-1.308-1.193-3.187-1.708-4.279-3.1a6.509 6.509 0 0 1 -1.108-2.7 17.666 17.666 0 0 1 .278-8.467 3.768 3.768 0 0 0 .213-2.215c-.492-1.429-2.427-1.531-3.786-2.194-3.085-1.506-3.01-5.86-2.471-9.25-.359 2.257-8.4-1.582-9.241-2.861-1.673-2.54-.762-7.44-1.093-10.247-3.611 1.737-5.003 6.896-3.149 10.448z" transform="translate(-27.755 -199.595)"/><path d="m875.443 502.323c-1.484-1.661-3.719-3.4-5.709-2.4-1.518.764-1.935 2.865-1.341 4.457a9.809 9.809 0 0 0 3.237 3.86c4.146 3.42 8.611 6.506 12.229 10.481 6.473 7.114 9.9 16.713 16.942 23.266a9.5 9.5 0 0 0 5.335 2.887c2.051.191 4.354-1.122 4.59-3.169.194-1.686-.981-3.194-2.129-4.444-2.735-2.975-5.729-5.713-8.31-8.821a7.412 7.412 0 0 1 -2.124-4.436c-.013-1.674 1.513-3.425 3.135-3.011-1.972-.5-3.435-3.789-6.329-4.407-2.419-.516-3 .981-5.883-.253-5.486-2.352-9.798-9.705-13.643-14.01z" transform="translate(-32.688 -196.639)"/><path d="m998.4 349.634a45.449 45.449 0 0 1 -4.638-1.657c-4.076-1.224-9.47 1.773-8.927 5.994.361 2.8 2.971 4.7 4.413 7.128 2.138 3.608 1.568 8.184.444 12.224a9.557 9.557 0 0 1 -1.542 3.478 11.779 11.779 0 0 1 -3.654 2.627 48.859 48.859 0 0 0 -14.3 12.145 3.5 3.5 0 0 0 -.863 1.628c-.195 1.425 1.238 2.463 2.048 3.652 1.8 2.641.5 6.194.677 9.384a2.653 2.653 0 0 0 1.118 2.328c1.084.551 2.369-.385 2.957-1.45 1.951-3.534.481-9.207 4.141-10.91.692-.322 1.531-.458 1.993-1.066.733-.965.026-2.393.4-3.546.557-1.731 2.925-1.809 4.742-1.732a26.915 26.915 0 0 0 9.246-1.231 6.154 6.154 0 0 0 3.06-1.772c1.094-1.365 1-3.306.779-5.042a68.345 68.345 0 0 0 -8.075-24.639c3.214.411 6.711.766 9.485-.909 1.553-.938 3.416-3.743 2.646-5.652-1.212-3.016-3.415-.478-6.15-.982z" transform="translate(-26.642 -205.716)"/><path d="m615.362 395.706c.385 2.063.763 4.236.087 6.222s-2.8 3.647-4.812 3.038c-1.559-.472-2.459-2.04-3.566-3.235-6.155-6.645-20.042-2.8-23.845-11.019-1.552-3.355-.5-7.375-1.556-10.917a9.717 9.717 0 0 0 -9.84-6.685 20.22 20.22 0 0 0 -5.662 1.69 142.776 142.776 0 0 1 -37.516 9.383 30.828 30.828 0 0 0 -7.209 1.312c-5.286 1.916-8.9 6.817-11.468 11.817s-4.468 10.414-7.914 14.857c-3.622 4.669-8.7 7.939-13.43 11.475a13.7 13.7 0 0 0 -4.431 4.644c-1.026 2.107-.968 4.558-.889 6.9l.968 28.448c.124 3.659.281 7.449 1.918 10.723 2.045 4.089 6.085 6.767 8.887 10.379a20.33 20.33 0 0 1 4.217 12.983c-.06 1.883-.247 4.111 1.22 5.293a5.364 5.364 0 0 0 3 .863l38.479 3.151c6.769.554 14.271 1.465 18.69 6.622 2.086 2.434 3.761 5.934 6.956 6.2 1.37.112 2.7-.451 4.074-.559 3.458-.274 6.5 2.351 8.413 5.242a23.255 23.255 0 0 1 3.735 14.922c-.314 3.3-1.337 6.5-1.557 9.809-.839 12.577 9.823 23.5 10.03 36.107.122 7.413-3.4 14.34-6.829 20.912 5.538 8.389 1 19.56 3.208 29.367 2.092 9.3 9.849 16.588 11.782 25.927.885 4.275.936 9.536 4.706 11.738a10.728 10.728 0 0 0 5.325 1.066 70.2 70.2 0 0 0 31.968-7.278c4.661-2.313 9.492-5.766 10.306-10.906.656-4.145-1.445-8.781.694-12.391 2.521-4.255 8.98-3.918 12.689-7.189 6.018-5.307 1.325-15.43 3.764-23.074 2.192-6.872 9.736-10.522 13.476-16.689a29.654 29.654 0 0 0 3.132-8.487 121.064 121.064 0 0 0 3.186-21.647 129.759 129.759 0 0 1 .979-13.259c4.032-25.05 28.8-41.824 36.837-65.889.768-2.3 1.128-5.359-.916-6.66a5.855 5.855 0 0 0 -3.894-.408l-17.739 2.236c-2.2.278-4.539.537-6.562-.378s-3.474-3.475-2.4-5.419c3.013-5.457-3.185-12.354-5.938-17.947a264.83 264.83 0 0 0 -26.372-42.768 4.348 4.348 0 0 1 -1.156-2.51l5.034.168c-1.7-6.1-4.5-12.771-10.429-15-3.338-1.257-7.036-.822-10.6-.628-10.192.55-21.132-.991-31.23-2.552z" transform="translate(-55.684 -204.199)"/><path d="m644.765 267.084c2.67 2.835 5.661 5.841 9.524 6.335 6.823.873 11.728-6.182 14.851-12.311a6.015 6.015 0 0 0 6.277 5.565 12.392 12.392 0 0 0 4.721-1.846 93.009 93.009 0 0 1 44.062-11.39 4.759 4.759 0 0 1 3.634-5.231c3.132-.621 5.953 2.087 7.464 4.9s2.453 6.073 4.853 8.179 7.048 2.014 8-1.035c.91-2.927-2.139-5.423-4.673-7.149s-5.2-4.92-3.5-7.467c12.943-2.865 25.966-5.741 39.211-6.31a16.42 16.42 0 0 0 6.6-1.137c2.02-.991 3.625-3.241 3.082-5.424a14.947 14.947 0 0 1 -15.6-5.883c18.377-1.517 37.923-2.809 54.209 5.838 1.954 4.2-8.006 7.686-5.341 11.47.85 1.207 2.553 1.348 4.029 1.376 11.318.21 22.7.416 33.89-1.293 4.089-.624 8.22-1.506 12.325-1 6.838.843 12.687 5.406 19.415 6.894 2.738.606 5.808.626 8.117-.967s3.3-5.219 1.409-7.289c6.334-6.208 16.847-4.669 25.2-1.7s16.273 7.765 25.117 8.428c6.342.475 12.773-1.231 19.04-.147 3.938.681 7.6 2.433 11.452 3.51 7.28 2.036 14.981 1.606 22.539 1.7a157.928 157.928 0 0 1 56.279 11.183 16.732 16.732 0 0 1 6.256 3.7c1.667 1.785 2.518 4.56 1.4 6.731l-18.507-2.704c1.745 3.434 6.258 4.02 9.923 5.2s7.466 5.233 5.263 8.393c-3.972-1.265-7.57 2.706-9.577 6.359s-4.451 8.029-8.613 8.251c-3.727.2-8.234-2.974-10.663-.141a72.732 72.732 0 0 1 8.569 13.7c2.4 5 4.109 11.3.865 15.8a4.1 4.1 0 0 1 -2.189 1.7c-2.649.671-4.371-2.57-6.271-4.535-2.394-2.475-6.015-3.177-9.257-4.337s-6.658-3.445-6.911-6.879c-.158-2.137.97-4.123 1.8-6.1a23.494 23.494 0 0 0 1.785-10.538c-.182-2.9-.995-5.914-3.077-7.939s-5.676-2.668-7.911-.813c-1.043.866-1.878 2.25-3.233 2.3-2.393.092-4.23-4.08-6.155-2.656a6.541 6.541 0 0 1 -.889 4.375c-5.745 5-14.569 2.882-21.975 4.647a41.245 41.245 0 0 0 -10.026 4.378 6.451 6.451 0 0 0 -2.866 2.405c-.924 1.8.095 4.1 1.724 5.292a13.688 13.688 0 0 0 5.685 1.941c9.029 1.71 18.189 4.357 25.317 10.156s11.8 15.385 9.547 24.293l-17.8-17.013q1.014 10.715 1.151 21.489a9.662 9.662 0 0 1 -.564 4.133c-1.269 2.8-4.709 3.747-7.724 4.366a6.05 6.05 0 0 0 -4.645 7.752c1.071 3.491 3.742 6.213 6.187 8.925s4.852 5.795 5.172 9.432-2.424 7.738-6.067 7.485c-2.762-.192-4.811-2.664-5.988-5.169s-1.879-5.3-3.649-7.424c-5.357-6.443-17.389-3.682-22.188-10.551a10.853 10.853 0 0 0 -2.244 10.328c2.233-1.4 5.289-.1 6.966 1.932s2.469 4.634 3.786 6.915c1.778 3.078 4.606 5.806 4.855 9.352a30.576 30.576 0 0 0 .068 4.022c.441 2.148 2.257 3.691 3.516 5.487 2.93 4.178 2.785 9.918.9 14.659s-5.28 8.7-8.64 12.543c-5.869 6.708-11.857 13.377-18.815 18.948-1.985 1.59-4.1 3.153-5.34 5.375s-1.3 5.342.6 7.032c-1.36.068-3.8.737-5.157.8a119.9 119.9 0 0 1 -.311-16.4c-5.365-2.576-11.142 4.323-10.449 10.234s4.968 10.655 8.012 15.769c2.226 3.74 3.88 8.1 3.137 12.389s-4.571 8.244-8.907 7.866c-6.9-.6-9.781-10.5-16.611-11.635a2.791 2.791 0 0 0 -1.8.178c-1.014.556-1.19 1.913-1.247 3.068-.279 5.669-.521 11.563 1.692 16.789 3.237 7.646 11.6 14.068 9.846 22.183-9.451-4.393-14.364-14.991-16.6-25.172s-2.6-20.868-6.6-30.491c-3.037 3.892-9.42.675-12.194-3.409-2.63-3.871-4.25-8.349-6.8-12.272s-6.462-7.436-11.137-7.652c-4.9-.226-9.153 3.138-12.892 6.316-3.074 2.614-6.231 5.33-8.028 8.943-2.615 5.257-1.931 11.455-2.057 17.325-.136 6.346-1.481 13.042-5.807 17.689s-12.309 6.264-17.08 2.077c-2.491-2.186-3.7-5.452-4.771-8.587a420.37 420.37 0 0 1 -12.916-46.11c-.8 3.561-3.929 8.151-6.916 6.054a6.192 6.192 0 0 1 -1.593-2.053c-5.572-9.445-15.892-15.11-26.319-18.506s-21.4-4.981-31.708-8.714a80.317 80.317 0 0 1 -16.449-8.193 12.936 12.936 0 0 0 -.791 13.233c2.287 4.05 7.463 6.393 11.894 4.978 2.289-.732 4.223-2.321 6.495-3.106s5.321-.4 6.314 1.789c.951 2.095-.486 4.629.227 6.817 1.086 3.332 6.11 3.588 7.868 6.62 1.307 2.256.232 5.251-1.635 7.071s-4.357 2.818-6.635 4.085c-7.393 4.111-12.65 11.129-19.111 16.589s-15.577 9.446-23.277 5.944c1.835-9.294-9.236-16.118-11.272-25.37-.67-3.045-.323-6.28-1.28-9.248-1.386-4.3-5.2-7.251-8.325-10.507a41.237 41.237 0 0 1 -11.311-30c.169-3.824.872-7.71 0-11.437s-3.957-7.335-7.781-7.166c-8.734.386-19.736 1.035-24.318-6.41-1.635-2.657-2.347-6.549.017-8.585 1.668-1.436 4.13-1.3 6.32-1.085l19.678 1.936c4.6.453 9.577.826 13.527-1.58s5.661-8.793 2-11.623c-2.672-2.068-7.459-1.956-8.236-5.245-.647-2.739 2.385-5.846.747-8.135-1.174-1.641-3.813-1.186-5.413.044s-2.76 3.03-4.55 3.961c-3.14 1.634-6.892.079-10.27-.978s-7.907-1.147-9.546 1.991c-1.833 3.509 1.625 8.107-.193 11.623-2.4 4.649-10.547 2-13.924 6-3.875 4.589 2.637 11.431 1.33 17.293a10.765 10.765 0 0 1 -10.605-.6 10.3 10.3 0 0 1 -4.452-9.591c.323-2.637 1.7-5.329.777-7.821-.745-2.015-2.768-3.214-4.648-4.253l-19.122-10.567c-1.775 3.293.469 7.376 3.276 9.85s6.323 4.337 8.167 7.592a9.966 9.966 0 0 1 -3.75 13.139 2.3 2.3 0 0 1 -1.9.331 2.644 2.644 0 0 1 -1.232-1.645c-3.374-8.634-8.44-17.147-16.538-21.658s-19.736-3.583-25.047 4.015c-1.261 1.8-2.108 3.862-3.207 5.77-5.838 10.137-18.354 14.937-30.048 14.624a5.968 5.968 0 0 1 -3.278-.77c-1.89-1.305-1.8-4.075-1.515-6.353l1.227-9.669c.247-1.942.6-4.088 2.14-5.3 2.166-1.709 5.291-.63 8.05-.67a10.2 10.2 0 0 0 9.26-7.147 11.5 11.5 0 0 0 -3.2-11.434c-1.265-1.188-2.962-2.679-2.294-4.28a3.539 3.539 0 0 1 2.482-1.671c4.956-1.439 10.192-1.816 15.065-3.514s9.6-5.172 10.752-10.2c.354-1.541.515-3.408 1.9-4.173a5.7 5.7 0 0 1 2.195-.448 10.68 10.68 0 0 0 9.161-11.134c2.335-1.632 5.607-.431 7.866 1.3s4.254 4.029 7 4.777c5.123 1.394 10.074-3.142 15.383-3.163 2.233-.009 4.544.781 6.645.024 2.129-.767 3.4-2.887 5.035-4.453s4.5-2.521 6.011-.834l-1.285-9.519a18.713 18.713 0 0 0 15.229-2.753l-16.608-5.612a3.612 3.612 0 0 1 -1.553-.83c-1.207-1.3-.008-3.326.974-4.8 2.349-3.536 2.743-9.36-1.12-11.12-2.637-1.2-5.663.241-8.193 1.652l-12.122 6.759c-.385 2.3 2.432 3.61 4.179 5.162a7.006 7.006 0 0 1 -4.569 12.242 8.73 8.73 0 0 1 1.559 7.4l-8.156.587a3.533 3.533 0 0 1 -2.645-.516c-.872-.775-.754-2.132-.956-3.281-.488-2.773-3.2-4.717-5.975-5.215s-5.607.14-8.351.771a4.984 4.984 0 0 1 -3.59-.083 3.585 3.585 0 0 1 -1.42-1.792c-1.2-2.917-.078-6.346 1.854-8.841s4.578-4.318 6.953-6.4a40.528 40.528 0 0 0 12.051-18.691c4.49-1.881 9.138-4.437 13.628-6.318a41.7 41.7 0 0 1 22.415-4.343l15.205.29c4.5.086 9.125.2 13.288 1.912s7.82 5.428 8.108 9.922a3.046 3.046 0 0 1 -.975 2.784 3.593 3.593 0 0 1 -1.922.433c-4.194.152-5.984 1.198-10.183 1.345z" transform="translate(-53.841 -213.001)"/><path d="m523.751 310.007a4.449 4.449 0 0 0 1.213-4.475 8.323 8.323 0 0 0 -8.618 1.627 14.529 14.529 0 0 0 -2.309 3.052c-2 3.26-3.765 7.154-2.607 10.8a3.067 3.067 0 0 0 1.4 1.92 3.691 3.691 0 0 0 1.636.256 54.848 54.848 0 0 0 6.585-.405c1.342-.164 2.9-.543 3.419-1.791.682-1.641-.968-3.5-.487-5.208a5.691 5.691 0 0 1 1.405-2.012 2.66 2.66 0 0 0 .829-2.233c-.194-.8-1.423-1.258-1.865-.561" transform="translate(-54.023 -208.269)"/><path d="m534.273 295.785a18.425 18.425 0 0 0 -5.967-.375 2.6 2.6 0 0 0 -1.271.289 2.121 2.121 0 0 0 -.784 1.135 5.637 5.637 0 0 0 3.282 6.908 7.053 7.053 0 0 1 2.035.818c1.688 1.309.612 3.986.931 6.1.359 2.372 2.654 4.362 2.233 6.724-.332 1.86-2.319 3.333-2 5.2.335 1.951 2.81 2.537 4.783 2.693a6.016 6.016 0 0 0 3.389-.388 5.247 5.247 0 0 0 2.138-3.1 19.846 19.846 0 0 0 1-7.473 7.088 7.088 0 0 0 -.843-3.3 18.427 18.427 0 0 0 -1.969-2.255c-3.778-4.399.202-10.961-6.957-12.976z" transform="translate(-53.131 -208.846)"/></g></svg>