<svg height="896" viewBox="0 0 774 896" width="774" xmlns="http://www.w3.org/2000/svg"><path d="m116.506 90.6a21.09 21.09 0 0 1 36.536 0l83 124.776a21.09 21.09 0 0 1 -18.272 31.624h-165.991a21.09 21.09 0 0 1 -18.268-31.63z" fill="#ffb37a" opacity=".05" transform="matrix(.017 -1 1 .017 433.035 789.829)"/><path d="m116.506 90.6a21.09 21.09 0 0 1 36.536 0l83 124.776a21.09 21.09 0 0 1 -18.272 31.624h-165.991a21.09 21.09 0 0 1 -18.268-31.63z" fill="#ff67a3" opacity=".05" transform="matrix(.017 -1 1 .017 445.035 371.829)"/><path d="m384.82 109.154c28.115-48.574 98.244-48.574 126.36 0l321.4 555.276c28.169 48.67-6.949 109.57-63.18 109.57h-642.8c-56.231 0-91.349-60.9-63.18-109.569z" fill="#f1f3fb" transform="matrix(0 1 -1 0 774 0)"/></svg>