<svg fill="none" height="57" viewBox="0 0 187 57" width="187" xmlns="http://www.w3.org/2000/svg"><path d="m9.79572 20.4633c.34928-.6142.85508-1.1248 1.46578-1.4801s1.3047-.5424 2.0112-.5424c.7066 0 1.4005.1871 2.0112.5424.6108.3553 1.1165.8659 1.4658 1.4801l9.273 16.309c.3459.6083.5261 1.2966.5227 1.9963s-.1902 1.3863-.5419 1.9912-.8559 1.107-1.4623 1.4561-1.2938.533-1.9935.5334h-18.54898c-.69979-.0002-1.38728-.184-1.99381-.5331-.60653-.349-1.110882-.8511-1.462687-1.456s-.53875307-1.2916-.54217516-1.9913c-.00342209-.6998.17680116-1.3883.52267316-1.9966z" fill="#f1f3fb"/><path d="m35.3172 10.7046c.7008.0015 1.3889.187 1.9954.538s1.1102.8552 1.4605 1.462c.3504.6069.5352 1.2952.5359 1.9959.0008.7008-.1826 1.3895-.5318 1.997l-7.1586 12.455c-.3502.6094-.8547 1.1157-1.4628 1.4681-.6082.3523-1.2984.5382-2.0012.5389-.7029.0007-1.3935-.1838-2.0023-.5349-.6089-.3511-1.1145-.8564-1.4659-1.4651l-7.2065-12.482c-.3514-.6087-.5362-1.2992-.5359-2.002.0004-.7028.1859-1.3932.538-2.0015.352-.6083.8581-1.1131 1.4673-1.4636s1.3-.5343 2.0028-.5328z" fill="#e74c3c"/><path d="m52.155 29.025-.385 1.19h7.56l-.385-1.19c-.8867-2.7533-1.61-5.0283-2.17-6.825-.56-1.82-.8983-2.9517-1.015-3.395l-.175-.665c-.2567 1.0967-1.4 4.725-3.43 10.885zm-3.255 9.975h-3.815l8.155-23.59h4.725l8.05 23.59h-3.85l-1.855-5.775h-9.52zm24.0505 6.79h-3.43v-24.535h3.43v2.73c1.2133-1.9833 3.0333-2.975 5.46-2.975 2.3333 0 4.1766.8517 5.53 2.555 1.3533 1.68 2.03 3.8267 2.03 6.44 0 2.6833-.7 4.9-2.1 6.65-1.3767 1.7267-3.22 2.59-5.53 2.59-2.3567 0-4.1534-.98-5.39-2.94zm0-15.715c0 2.0533.4783 3.5933 1.435 4.62.98 1.0267 2.0883 1.54 3.325 1.54 1.3766 0 2.5083-.5367 3.395-1.61.8866-1.0967 1.33-2.625 1.33-4.585 0-1.8433-.4317-3.3017-1.295-4.375-.8634-1.0967-1.96-1.645-3.29-1.645s-2.485.49-3.465 1.47c-.9567.9567-1.435 2.485-1.435 4.585zm20.3027 15.715h-3.43v-24.535h3.43v2.73c1.2133-1.9833 3.0333-2.975 5.46-2.975 2.3338 0 4.1768.8517 5.5298 2.555 1.354 1.68 2.03 3.8267 2.03 6.44 0 2.6833-.7 4.9-2.1 6.65-1.376 1.7267-3.22 2.59-5.5298 2.59-2.3567 0-4.1533-.98-5.39-2.94zm0-15.715c0 2.0533.4783 3.5933 1.435 4.62.98 1.0267 2.0883 1.54 3.325 1.54 1.3767 0 2.5088-.5367 3.3948-1.61.887-1.0967 1.33-2.625 1.33-4.585 0-1.8433-.431-3.3017-1.295-4.375-.863-1.0967-1.9598-1.645-3.2898-1.645s-2.485.49-3.465 1.47c-.9567.9567-1.435 2.485-1.435 4.585zm35.9828 7c-2.03 1.47-4.573 2.205-7.63 2.205-3.687 0-6.662-1.085-8.925-3.255-2.24-2.17-3.36-5.1217-3.36-8.855 0-3.6167 1.132-6.545 3.395-8.785 2.287-2.2633 5.18-3.395 8.68-3.395 2.73 0 5.017.525 6.86 1.575v3.71c-2.007-1.26-4.247-1.89-6.72-1.89-2.52 0-4.562.805-6.125 2.415-1.54 1.61-2.31 3.7333-2.31 6.37 0 2.7067.758 4.8417 2.275 6.405 1.54 1.5633 3.652 2.345 6.335 2.345 1.4 0 2.73-.2567 3.99-.77v-6.51h-4.795v-3.115h8.33v11.305h-.035zm8.143 1.925h-3.43v-17.745h3.43v3.115c.864-2.1933 2.415-3.29 4.655-3.29.327 0 .689.035 1.085.105v3.36c-.49-.21-1.038-.315-1.645-.315-1.19 0-2.17.525-2.94 1.575s-1.155 2.2983-1.155 3.745zm12.036 0h-3.465v-17.745h3.465zm.42-23.17c0 .5833-.21 1.085-.63 1.505s-.934.63-1.54.63c-.607 0-1.12-.1983-1.54-.595-.397-.42-.595-.9333-.595-1.54s.198-1.12.595-1.54c.42-.42.933-.63 1.54-.63.606 0 1.12.21 1.54.63s.63.9333.63 1.54zm7.109 14.455c0 1.7733.431 3.2083 1.295 4.305.886 1.0967 1.995 1.645 3.325 1.645 1.353 0 2.496-.5133 3.43-1.54.933-1.0267 1.4-2.59 1.4-4.69 0-2.03-.49-3.535-1.47-4.515-.957-.98-2.042-1.47-3.255-1.47-1.377 0-2.509.5483-3.395 1.645-.887 1.0733-1.33 2.6133-1.33 4.62zm12.915 8.715h-3.465v-2.695c-1.237 1.96-3.045 2.94-5.425 2.94-2.334 0-4.177-.875-5.53-2.625-1.354-1.7733-2.03-3.9083-2.03-6.405 0-2.7767.711-5.005 2.135-6.685 1.423-1.68 3.255-2.52 5.495-2.52 2.31 0 4.095.98 5.355 2.94v-9.695h3.465zm15.927-4.9c0 1.5867-.56 2.835-1.68 3.745-1.12.8867-2.636 1.33-4.55 1.33-2.1 0-3.85-.35-5.25-1.05v-3.255c1.634 1.0033 3.325 1.505 5.075 1.505.91 0 1.61-.1867 2.1-.56.514-.3733.77-.8633.77-1.47 0-.5133-.198-.9683-.595-1.365-.396-.42-.805-.7233-1.225-.91-.396-.21-1.085-.525-2.065-.945-2.776-1.1433-4.165-2.8233-4.165-5.04 0-1.5633.584-2.7883 1.75-3.675 1.167-.8867 2.625-1.33 4.375-1.33 1.914 0 3.407.2567 4.48.77v3.115c-1.143-.6767-2.613-1.015-4.41-1.015-.816 0-1.47.1867-1.96.56-.466.3733-.7.8633-.7 1.47 0 .1633.012.3267.035.49.047.14.117.2917.21.455.094.14.175.2683.245.385.094.0933.234.1983.42.315.187.1167.327.2217.42.315.117.07.292.1633.525.28.257.1167.444.21.56.28.117.0467.315.14.595.28.304.1167.514.1983.63.245 1.377.6067 2.45 1.295 3.22 2.065.794.7467 1.19 1.75 1.19 3.01z" fill="#f1f3fb"/></svg>