<svg height="435.429" viewBox="0 0 855.83 435.429" width="855.83" xmlns="http://www.w3.org/2000/svg"><g fill="#f1f3fb" opacity=".56"><path d="m278.784 257.955a28.316 28.316 0 0 0 -1.851-7.086 3.208 3.208 0 0 0 -1.631-2.008 3.36 3.36 0 0 0 -1.618-.018l-8.307 1.271a3.185 3.185 0 0 0 -1.9.736c-1.082 1.138-.017 2.97-.05 4.54a4.267 4.267 0 0 1 -3.306 3.672 12.5 12.5 0 0 1 -5.254-.065l-11.616-1.805a19.152 19.152 0 0 0 8.787-5.864c1.529-1.811 2.342-5.192.133-6.049a5.424 5.424 0 0 0 -2.018-.162c-5.263.041-9.4-4.353-14.331-6.2a15.845 15.845 0 0 0 -17.822 5.312l6.188.3a2.746 2.746 0 0 1 1.648.44c1.356 1.114-.33 3.254-.139 5 .248 2.267 3.258 2.751 5.527 2.98s5.147 2.073 4.056 4.075c-11.4 3.928-23.007-7.678-34.982-6.249-3.031.362-5.893 1.552-8.852 2.3-18.077 4.574-36.765-7.629-55.232-5.045a70.132 70.132 0 0 0 -12.057 3.18c-2.513.825-5.135 1.717-6.961 3.631s-2.521 5.187-.791 7.188a40.456 40.456 0 0 1 -14.178-1.348 7.943 7.943 0 0 1 4.084 7 84.12 84.12 0 0 0 -21.549 6.571 36.3 36.3 0 0 0 4.46 5.941l-9.425 6.055a5.379 5.379 0 0 1 2.979 7.856c3.3-1.469 5.348-5.269 8.879-6.039 2.313-.5 4.667.442 6.861 1.33s4.606 1.751 6.878 1.084 3.947-3.613 2.5-5.489a117.533 117.533 0 0 1 29.855-4.664 3.744 3.744 0 0 1 2.261.429c1.316.913.97 2.885.9 4.486s1.176 3.7 2.607 2.982c-1.683 1.459-.244 4.206 1.37 5.741s3.56 3.652 2.572 5.648c-.258.521-.7.938-.944 1.463-.733 1.552.431 3.361 1.8 4.391s3.053 1.751 4.006 3.177.52 3.924-1.184 4.124l-4.844-6.151a12.611 12.611 0 0 0 -3.272 6.2 13.012 13.012 0 0 1 1.609 17.8c-2.2 2.582-5.323 4.151-8.051 6.165s-5.252 4.882-5.245 8.272c.012 5.858-.467 11.3 1.728 16.731a257.727 257.727 0 0 0 13.992 29.192c1.384 2.476 3.173 5.189 5.977 5.615q-5.316-12.941-9.571-26.285c1.847.007 3.982.154 5.065 1.651.9 1.239.7 2.924.983 4.429a13.719 13.719 0 0 0 1.75 4.113l16.923 30.145c1.4 2.5 3.012 5.181 5.693 6.193 1.714.647 3.7.525 5.275 1.457 1.237.73 2.07 2.026 3.33 2.714 3.565 1.945 8.522-1.785 11.854.537a33.35 33.35 0 0 1 2.436 2.479c3.077 2.665 8.124.882 11.676 2.87 2.289 1.281 3.476 3.843 4.7 6.165 3.058 5.816 8.007 11.513 14.562 11.977 2.059.145 4.162-.245 6.175.213s3.994 2.214 3.671 4.253c-.554 3.495 1.173 7.322.709 10.83-.845 6.39-9.909 9.2-10.687 15.6-.17 1.4.1 2.847-.237 4.218-.409 1.681-1.671 3.049-2.12 4.72-.85 3.166 1.418 6.316 3.91 8.446s5.464 3.966 6.826 6.948c1.44 3.151.733 6.826 1.2 10.259 1.022 7.494 7.5 13.05 14.157 16.632 2.03 1.091 4.209 2.148 5.523 4.042 1.715 2.471 1.544 5.729 2.116 8.682 1.4 7.232 7.49 13.19 7.663 20.555.123 5.234-2.787 9.983-4.525 14.922a34.8 34.8 0 0 0 2.842 28.861 46.226 46.226 0 0 1 3.775 6.646c1.641 4.247 1.109 9.076 2.622 13.37 2 5.678 7.5 10.368 6.972 16.365 2.5 5.183 8.008 7.73 13.55 9.273l9.933 2.765a12.763 12.763 0 0 0 5.826.68c1.937-.383 3.785-1.991 3.735-3.965-4.871-1.1-9.9-2.267-13.914-5.235s-6.766-8.254-5.242-13.009c.706-2.2 2.209-4.751.78-6.573-.818-1.043-2.314-1.316-3.237-2.267-1.439-1.485-.945-3.978.09-5.769s2.53-3.39 2.948-5.415a5.65 5.65 0 0 0 -2.648-5.878 14.045 14.045 0 0 0 4.916-3.154c1.293-1.477 1.89-3.753.873-5.431 3.02.383 6.586.571 8.569-1.74 1.583-1.845 1.474-4.6.849-6.953s-1.683-4.631-1.716-7.062a128.7 128.7 0 0 0 20.879-.708 13.538 13.538 0 0 0 -6.348-7.95c3.138-.531 6-4.288 6.988-7.312a18.814 18.814 0 0 0 .126-9.442 5.067 5.067 0 0 1 -.094-2.474 4.821 4.821 0 0 1 2.483-2.4l15.576-8.946a9.072 9.072 0 0 0 2.491-1.839c1.632-1.917 1.39-4.811.555-7.185s-2.174-4.608-2.5-7.1c-.963-7.467 7.031-12.825 9.729-19.854a29.915 29.915 0 0 0 1.479-8.7c.22-3.166.236-6.843-2.194-8.883-2.33-1.956-5.971-1.519-8.409-3.338-2.235-1.668-3.007-4.907-5.449-6.254-2.218-1.223-5-.445-7.465-1.021-4.343-1.013-7.076-6.018-11.511-6.482-2.5-.261-5.335.962-7.386-.5-1.807-1.284-1.88-3.865-2.224-6.056a16.912 16.912 0 0 0 -13.65-13.694c-2.58-.414-5.389-.257-7.584-1.675-2.223-1.436-3.242-4.124-4.988-6.112-2.814-3.2-7.246-4.343-11.4-5.319l-16.887-3.97c-3-.7-6.862-1.078-8.47 1.547a12.137 12.137 0 0 0 -1 3.151 9.759 9.759 0 0 1 -9.178 6.908 10.853 10.853 0 0 0 -6.4-4.952c-1.712-.477-3.545-.53-5.178-1.232a7.274 7.274 0 0 1 -3.156-10.09 9.054 9.054 0 0 0 -1.547-10.891c-2.872-2.578-7.026-3.2-10.877-2.943-1.009-2.2.678-4.683 2.495-6.283s4.024-3.171 4.419-5.559c.622-3.756-4.171-6.61-7.81-5.49s-5.962 4.655-7.5 8.139a23.963 23.963 0 0 1 -3.02 5.79c-1.39 1.686-3.627 2.893-5.744 2.352-3-.766-4.154-4.326-4.817-7.347-.89-4.053-1.785-8.163-1.6-12.308s1.584-8.4 4.641-11.208c4.981-4.573 12.623-4.125 19.346-3.4-1.588-1.789-1.2-4.805.5-6.49a7.378 7.378 0 0 1 6.688-1.643 9.216 9.216 0 0 1 5.181 3.1c1.91 2.329 2.454 5.474 3.9 8.118s4.691 4.9 7.348 3.48c2.3-1.225 2.66-4.408 2.088-6.947s-1.785-5.007-1.578-7.6c.395-4.949 5.525-7.928 10.052-9.966s9.711-4.78 10.428-9.692a8.837 8.837 0 0 1 .537-2.817 5.525 5.525 0 0 1 2.027-1.906c13.212-8.732 26.645-17.57 41.746-22.341.786-.248.878.028 1.679-.167 1.121-.648.378-2.439-.7-3.161s-2.51-1.275-2.783-2.541c-.2-.93.348-1.843.49-2.784a3.476 3.476 0 0 0 -4.563-3.522c-1.213-1.606 1.187-3.473 3.128-4.008a84.945 84.945 0 0 1 17.846-2.915 3.215 3.215 0 0 1 2.031.345c1.014.7.884 2.313.166 3.315a19.507 19.507 0 0 1 -2.731 2.48 7.455 7.455 0 0 0 -1.934 7.5c3.151 1.6 6.576 3.253 10.066 2.688s6.587-4.485 4.947-7.617c-1.527-2.916-6.116-3.574-6.9-6.77-.924-3.742 4.373-7.07 3.18-10.735-.523-1.605-2.123-2.55-3.35-3.709a10.064 10.064 0 0 1 -2.2-11.16 12.7 12.7 0 0 1 -11.136-3.485c-2.664-2.688-4.789-6.929-8.571-6.808-3.471.11-6.461 4.16-9.706 2.924-.8-.3-1.64-.923-2.414-.56a2 2 0 0 0 -.9 1.495c-.825 3.943.594 8.436-1.555 11.844-2.339 3.708-7.748 4.222-10.584 7.566-1.539 1.815-2.135 4.261-3.55 6.175s-4.417 3.13-6.115 1.463a8.428 8.428 0 0 0 -2.29-10.249 22.49 22.49 0 0 0 -5.057-2.46 30 30 0 0 1 -5.65-3.149 5.565 5.565 0 0 1 -2.074-2.219 5.057 5.057 0 0 1 .142-3.51 14.35 14.35 0 0 1 11.42-9.465c2.26-.308 4.891-.2 6.387-1.922.792-.911 1.207-2.289 2.356-2.659a3.475 3.475 0 0 1 2.175.268l8.437 2.97a5.922 5.922 0 0 0 3.006.5 2.038 2.038 0 0 0 1.762-2.142c-.27-1.4-2.426-2.074-2.229-3.487a2.328 2.328 0 0 1 .706-1.187 30.164 30.164 0 0 1 23.924-9.448c1.065 1.749-.619 3.82-2.021 5.313s-2.527 4.161-.833 5.31a4.647 4.647 0 0 0 2.246.506 19.615 19.615 0 0 1 5.979 1.814q4.373 1.9 8.579 4.165a10.876 10.876 0 0 1 .217-5.524c.7-1.728 2.692-3.084 4.431-2.411 1.676.649 2.536 2.868 4.322 3.072 2.382.271 3.322-3.248 2.327-5.43s-2.965-4.008-3.129-6.4c-.111-1.614.5-3.615-.786-4.592a3.509 3.509 0 0 0 -1.521-.533l-32.186-5.923c-1.911-.352-4.673-.082-4.758 1.859-.047 1.084.921 2.156.492 3.152-.458 1.063-1.961.966-3.056 1.342-1.7.584-2.551 2.6-2.388 4.39a12.215 12.215 0 0 0 2.016 4.947c-2.088-.89-5.258-1.052-7.352-1.927z" transform="translate(-79.792 -218.009)"/><path d="m287.638 228.938a10.423 10.423 0 0 0 -11.449 3.429 2.293 2.293 0 0 0 -.531 2.415c.636 1.083 2.257.655 3.452.268a8.687 8.687 0 0 1 5.452-.13c1.122.385 2.126 1.066 3.253 1.437a3.276 3.276 0 0 0 3.34-.488 4.349 4.349 0 0 0 .823-3.12 2.509 2.509 0 0 0 -.639-2.062 3.278 3.278 0 0 0 -1.479-.437 5.093 5.093 0 0 1 -2.981-1.742" transform="translate(-114.326 -216.314)"/><path d="m303.738 225.126a2.651 2.651 0 0 0 -2.563 3.734 10.747 10.747 0 0 0 4.285.279 3.662 3.662 0 0 0 2.995-2.746 6.9 6.9 0 0 1 -4.882-.932" transform="translate(-118.821 -215.734)"/><path d="m349.265 217.821a49.29 49.29 0 0 0 -10.987 3.732 8.255 8.255 0 0 1 5.273 8.292 4.318 4.318 0 0 0 .05 2.05c.4.978 1.573 1.345 2.6 1.6a17.147 17.147 0 0 0 5.7.728 5.811 5.811 0 0 0 4.722-2.885 20.566 20.566 0 0 1 .982-2.321c2.464-3.753 9.784.785 12.43-2.842.932-1.278.847-3.2 2.062-4.213a4.631 4.631 0 0 1 2.119-.809 148.827 148.827 0 0 1 16.1-2.293c2.56-.223 5.9-1.142 5.919-3.712a44.592 44.592 0 0 0 -28.445 3.827c-3.171 1.588-7.365 4.929-10.419 2.823-1.144-.788-1.087-2.911-2.661-3.8-1.61-.908-3.737-.54-5.445-.177z" transform="translate(-125.41 -213.825)"/><path d="m389.576 223.616 4.527.87a5.866 5.866 0 0 0 -6.1 6.358c4.24 1.416 8.862.038 13.328.226s9.662 3.378 8.9 7.783c-.231 1.332-1 2.663-.6 3.954a14.713 14.713 0 0 0 1.529 2.38c.939 1.737.188 3.933-1 5.512s-2.778 2.838-3.819 4.516c-2.587 4.172-1.117 9.566.424 14.228a12.544 12.544 0 0 0 2.412 4.817c2.284 2.428 6 2.639 9.337 2.688 2.426.035 5.2-.084 6.738-1.964 2-2.454.6-6.282 1.921-9.161 1.2-2.615 4.248-3.737 7.012-4.533 5.064-1.458 10.225-2.7 15.012-4.9 5.945-2.734 11.5-7 18.034-7.348 1.833-.1 3.712.118 5.477-.385s3.443-2.029 3.309-3.86c-.114-1.564-1.438-2.713-2.472-3.892s-1.846-2.993-.9-4.24l17.126-3.2c-1.214-3.308-2.16-7.666.63-9.819 1.007-.777 2.354-1.088 3.211-2.027 1.461-1.6.726-4.359-.96-5.72s-3.966-1.678-6.126-1.857a164.35 164.35 0 0 0 -22.586.2l-44.124 2.419c-2.961.162-6.379-.086-9.095.924-2.3.855-3.933 2.425-6.563 2.976-4.848 1.019-10.19.33-14.582 3.055z" transform="translate(-134.181 -213.722)"/><path d="m488.007 268.481a1.822 1.822 0 0 0 -1.318.3 1.664 1.664 0 0 0 -.429 1.016 6.711 6.711 0 0 0 .975 4.8 4.7 4.7 0 0 0 4.305 2.064c2.039-.26 3.541-2 5.415-2.848 2.888-1.307 15.155-3.344 6.67-7.928-2.924-1.58-4.814-.185-7.119.855a16.2 16.2 0 0 1 -8.5 1.738z" transform="translate(-151.508 -222.802)"/><path d="m578.1 221.97a4.845 4.845 0 0 0 -2.357 2.052 2.07 2.07 0 0 0 .776 2.746 3.089 3.089 0 0 0 1.156.183l4.029.12c1.712.051 3.849.416 4.309 2.065.341 1.225-.423 2.8.5 3.674a2.6 2.6 0 0 0 1.37.535 9.339 9.339 0 0 0 4.059.131c2.931-.786 1.391-2.575 2.314-4.168 1.413-2.437 1.168-.962 3.657-2.359 1.838-1.032 4.213-2.9 2.679-5.533-2.67-4.572-18.558-1.41-22.492.554z" transform="translate(-167.275 -214.665)"/><path d="m671.354 219.707-2.339.312a94.234 94.234 0 0 0 -15.661 3 26.065 26.065 0 0 0 6.859 1.683 21.071 21.071 0 0 1 3.842.546c2.244.668 4.506 2.393 6.674 1.509 1.344-.548 1.783-1.948 2.9-2.689.769-.512 3.685-1.341 4.011-1.858 2.631-4.182-4.26-2.773-6.286-2.503z" transform="translate(-181.015 -214.699)"/><path d="m685.38 232.248a43.873 43.873 0 0 0 -8.633 6.322c-1.1 1.033-2.222 2.318-2.122 3.824.132 2 2.264 3.161 4.11 3.943l7.479 3.166c.907-1.279.077-3.044-.861-4.3s-2.052-2.71-1.638-4.223c.473-1.726 2.577-2.314 4.341-2.611 2.875-.484 10.63-.446 9.7-5.078-1.101-5.46-9.49-2.656-12.376-1.043z" transform="translate(-184.768 -216.608)"/><path d="m685.751 601.139a7.136 7.136 0 0 0 .452 6.289 6.372 6.372 0 0 0 6.54 2.26 11.783 11.783 0 0 0 6.072-3.9 20.915 20.915 0 0 0 3.493-5.356 41.811 41.811 0 0 0 2.589-9.472l2.322-12.191c.519-2.725.5-11.078-4.509-8.356-1.368.743-4.536 6.614-5.969 8.279-2.584 3-2.926 5.911-4.286 9.546-1.705 4.546-5.129 8.341-6.704 12.901z" transform="translate(-186.642 -276.575)"/><path d="m1005.5 683.111a36.506 36.506 0 0 1 -4.759-2.265 40.109 40.109 0 0 0 -2.412 13.147l11.213-6.345c1.687-.954 3.6-2.281 3.562-4.218a1.334 1.334 0 0 0 -.62-1.214 1.511 1.511 0 0 0 -.786-.092 18.977 18.977 0 0 0 -4.747 1.526c-1.568.569-3.4.87-4.842.025" transform="translate(-241.897 -296.161)"/><path d="m1074.978 687.332a24.287 24.287 0 0 0 -3.6 1.291c-2.573 1.309-4.324 3.8-6.639 5.52a26.337 26.337 0 0 1 -7.5 3.437 1.8 1.8 0 0 0 .42 2.65 5.2 5.2 0 0 0 2.961.666c2.72.06 5.586.086 7.969-1.228a25.136 25.136 0 0 0 3.752-2.978 39.734 39.734 0 0 1 9.444-5.34 10.839 10.839 0 0 0 3.292-1.968c2.081-2.05 2.228-5.213-.773-5.911-2.425-.565-7.021 3.114-9.326 3.861z" transform="translate(-252.218 -296.613)"/><path d="m1108.475 665.8a9.354 9.354 0 0 0 -2.862-7.664c-.031 2.823-.117 5.83-1.7 8.164-1.131 1.663-2.9 2.787-4.144 4.371s-1.789 4.1-.336 5.485a5.448 5.448 0 0 0 3.228 1.112c2.894.341 6.243.53 8.272-1.56 1.108-1.141 1.647-2.831 3-3.67a3.647 3.647 0 0 0 1.315-.941c.558-.887-.328-2.055-1.326-2.375s-2.1-.169-3.1-.473-1.923-1.431-1.408-2.344" transform="translate(-259.586 -292.152)"/><path d="m1044.476 539.683a13.007 13.007 0 0 1 -4.641.274c-2.576-.474-4.581-2.415-6.661-4.007a29.381 29.381 0 0 0 -17.167-6c-5.651-.107-11.356 1.425-16.906.356.363 2.017 2.089 3.53 3.93 4.429s3.874 1.352 5.724 2.233a13.668 13.668 0 0 1 6.62 6.887 19.441 19.441 0 0 0 1.874 4.12c1.845 2.483 5.343 3.028 8.429 2.825 4.024-.265 8.227-1.422 11.971.077 2.864 1.147 4.914 3.654 7.305 5.6s5.76 3.4 8.506 1.989a14.061 14.061 0 0 1 -9.729-13.53c2.693.248 10.451.152 10.033-4.424-.353-3.874-6.974-1.247-9.288-.829z" transform="translate(-242.033 -269.53)"/><path d="m994.183 577.243c.478-2.623 3.094-4.939 2.279-7.477-.563-1.755-2.6-2.622-4.442-2.665s-3.654.506-5.5.557a26.8 26.8 0 0 0 -3.6.051c-3.658.6-5.913 4.436-9.361 5.8-2.1.829-4.452.671-6.632 1.244-4.949 1.3-8.081 5.978-11.541 9.748a41.185 41.185 0 0 1 -20.9 12.191c-2.814.652-5.839 1.068-8.076 2.9-2.962 2.42-3.691 6.569-4.35 10.337a170.733 170.733 0 0 1 -8.312 30.512l11.752 1.5a15.975 15.975 0 0 0 6.7-.1 19.458 19.458 0 0 0 4.409-2.348 44.011 44.011 0 0 1 17.195-6.207 18.255 18.255 0 0 1 9.192.644c2.888 1.144 5.366 3.738 5.608 6.835a7.219 7.219 0 0 1 7.216 1.755 12.542 12.542 0 0 1 3.445 6.877c.31 1.608.619 3.534 2.111 4.209 1.217.55 2.613-.042 3.945-.149 4.518-.362 8.267 4.907 12.708 4 4.763-.973 5.932-8.106 10.579-9.535 2.669-.821 6.412.177 7.69-2.305 1.126-2.188-1.121-4.713-.889-7.163.285-3.017 3.844-4.3 6.587-5.584 9.457-4.438 13.945-17.166 9.362-26.554-2.715-5.562-8.058-9.941-9.045-16.051-.759-4.7 1.094-10.183-1.9-13.884-1.525-1.883-4.106-2.922-5.014-5.168-.571-1.414-.342-3.018-.649-4.512s-1.61-3.056-3.085-2.669c-4.281 1.124-5.647 14.35-7.94 17.563-3.49 4.884-10.646 1.666-9.542-4.352z" transform="translate(-226.97 -275.534)"/><path d="m914.018 547.726c-1.463-.41-3.061-.814-4.463-.228s-2.221 2.645-1.1 3.666c8.8-.343 17.658-.683 26.385.512 10.055 1.377 20.007 4.789 30.106 3.785a153.225 153.225 0 0 0 -17.562-4.075l-9.884-1.886a76.43 76.43 0 0 0 -8.029-1.24c-5.638-.47-9.907 1.021-15.453-.534z" transform="translate(-225.943 -272.575)"/><path d="m924.216 508.338c-.731-.061-1.636-.114-2.014.515-.361.6.052 1.393-.142 2.066-.265.92-1.47 1.155-2.419 1.029a4.633 4.633 0 0 0 -2.816.032 2.387 2.387 0 0 0 -.923 2.711 6.98 6.98 0 0 0 1.628 2.594 26.506 26.506 0 0 0 4.223 4.236c3.025 2.233 7.124 3.309 9.029 6.551a4.346 4.346 0 0 0 1.206 1.623c.915.579 2.108.139 3.092-.311l3.452-1.577a3.921 3.921 0 0 0 1.614-1.1c.789-1.07.3-2.592-.358-3.745s-1.509-2.346-1.367-3.668c.253-2.357 3.283-3.258 4.529-5.274 1.256-2.032.438-4.651.583-7.036.169-2.789 1.922-6.417-.9-8.5-2.4-1.771-4.687-.135-6.407 1.821-3.626 4.125-5.34 8.595-12.01 8.033z" transform="translate(-227.329 -263.844)"/><path d="m951.331 458.269c1.179 2.257 3.636 3.6 4.921 5.8 1.393 2.382 1.234 5.46 2.745 7.769 1.551 2.369 4.671 3.627 5.54 6.321.949 2.942-1.2 6.517.512 9.087a3.814 3.814 0 0 0 5.6.514 4.1 4.1 0 0 0 -.169-5.726c-1.017-.927-2.476-1.327-3.325-2.41a5.057 5.057 0 0 1 -.861-2.1 13.73 13.73 0 0 1 .216-6.579 2.928 2.928 0 0 0 .165-1.721c-.382-1.111-1.886-1.189-2.942-1.7-2.4-1.17-2.339-4.554-1.92-7.188-.279 1.754-6.527-1.229-7.181-2.223-1.3-1.974-.593-5.781-.85-7.962-2.81 1.349-3.892 5.359-2.451 8.118z" transform="translate(-233.49 -255.447)"/><path d="m873.814 501.723c-1.153-1.291-2.89-2.642-4.436-1.863a2.809 2.809 0 0 0 -1.042 3.463 7.623 7.623 0 0 0 2.516 3c3.222 2.657 6.692 5.056 9.5 8.145 5.03 5.528 7.7 12.987 13.166 18.08a7.384 7.384 0 0 0 4.146 2.244c1.594.148 3.384-.872 3.567-2.462.151-1.31-.762-2.482-1.655-3.453-2.125-2.312-4.452-4.439-6.458-6.855a5.76 5.76 0 0 1 -1.651-3.448c-.01-1.3 1.176-2.662 2.436-2.34-1.532-.392-2.669-2.945-4.918-3.425-1.88-.4-2.334.763-4.571-.2-4.265-1.827-7.614-7.541-10.6-10.886z" transform="translate(-218.92 -264.179)"/><path d="m991.921 349.2a35.316 35.316 0 0 1 -3.6-1.287c-3.168-.951-7.359 1.378-6.937 4.658.281 2.18 2.309 3.649 3.429 5.539 1.661 2.8 1.218 6.359.345 9.5a7.426 7.426 0 0 1 -1.2 2.7 9.153 9.153 0 0 1 -2.839 2.042 37.967 37.967 0 0 0 -11.109 9.438 2.72 2.72 0 0 0 -.671 1.265c-.151 1.107.962 1.914 1.592 2.838 1.4 2.052.388 4.813.526 7.292a2.062 2.062 0 0 0 .869 1.809c.843.428 1.841-.3 2.3-1.127 1.516-2.746.374-7.154 3.218-8.478.538-.25 1.19-.356 1.549-.828.569-.75.02-1.859.309-2.755.433-1.345 2.273-1.406 3.685-1.346a20.915 20.915 0 0 0 7.185-.956 4.782 4.782 0 0 0 2.378-1.377c.85-1.061.775-2.569.6-3.918a53.11 53.11 0 0 0 -6.275-19.146c2.5.319 5.215.6 7.371-.706 1.207-.729 2.654-2.909 2.056-4.392-.947-2.345-2.659-.365-4.781-.765z" transform="translate(-236.778 -237.367)"/><path d="m585.918 390.665a9.62 9.62 0 0 1 .067 4.835c-.525 1.544-2.178 2.834-3.739 2.361-1.211-.367-1.911-1.585-2.771-2.514-4.783-5.164-15.575-2.174-18.529-8.562-1.206-2.607-.386-5.731-1.209-8.483a7.551 7.551 0 0 0 -7.647-5.195 15.713 15.713 0 0 0 -4.4 1.313 110.949 110.949 0 0 1 -29.154 7.292 23.956 23.956 0 0 0 -5.6 1.019c-4.108 1.489-6.914 5.3-8.911 9.183s-3.472 8.093-6.15 11.545c-2.814 3.628-6.758 6.169-10.436 8.917a10.648 10.648 0 0 0 -3.443 3.608 11.288 11.288 0 0 0 -.691 5.362l.752 22.106c.1 2.843.218 5.788 1.491 8.333 1.589 3.177 4.728 5.259 6.906 8.066a15.8 15.8 0 0 1 3.277 10.089c-.046 1.463-.192 3.194.948 4.113a4.168 4.168 0 0 0 2.331.67l29.9 2.447c5.26.431 11.09 1.138 14.524 5.146 1.621 1.891 2.923 4.611 5.406 4.814a20.082 20.082 0 0 0 3.166-.434c2.687-.213 5.048 1.827 6.538 4.073a18.072 18.072 0 0 1 2.9 11.6c-.244 2.563-1.039 5.054-1.21 7.622-.652 9.773 7.633 18.264 7.794 28.058.094 5.761-2.64 11.143-5.306 16.251 4.3 6.519.779 15.2 2.493 22.82 1.625 7.23 7.654 12.89 9.156 20.147.688 3.322.727 7.41 3.657 9.121a8.336 8.336 0 0 0 4.138.829 54.552 54.552 0 0 0 24.842-5.655c3.622-1.8 7.376-4.481 8.009-8.475.51-3.221-1.123-6.824.539-9.629 1.959-3.307 6.978-3.045 9.861-5.587 4.676-4.124 1.03-11.99 2.925-17.931 1.7-5.34 7.566-8.177 10.472-12.969a23.045 23.045 0 0 0 2.433-6.6 94.079 94.079 0 0 0 2.476-16.821 100.853 100.853 0 0 1 .761-10.3c3.133-19.466 22.378-32.5 28.626-51.2.6-1.786.877-4.165-.712-5.175a4.55 4.55 0 0 0 -3.026-.317l-13.785 1.738a9.49 9.49 0 0 1 -5.1-.294c-1.572-.711-2.7-2.7-1.865-4.211 2.341-4.241-2.475-9.6-4.614-13.946a205.794 205.794 0 0 0 -20.493-33.235 3.378 3.378 0 0 1 -.9-1.951l3.912.13c-1.321-4.739-3.5-9.925-8.1-11.658-2.594-.977-5.467-.639-8.235-.488-7.928.433-16.427-.765-24.274-1.978z" transform="translate(-150.999 -241.848)"/><path d="m615.641 257.876c2.075 2.2 4.4 4.539 7.4 4.923 5.3.678 9.114-4.8 11.541-9.566a4.675 4.675 0 0 0 4.878 4.324 9.63 9.63 0 0 0 3.669-1.434 72.276 72.276 0 0 1 34.241-8.852 3.7 3.7 0 0 1 2.824-4.065c2.434-.483 4.626 1.622 5.8 3.808s1.906 4.719 3.771 6.356 5.477 1.565 6.214-.8c.707-2.275-1.662-4.214-3.631-5.555s-4.044-3.823-2.718-5.8c10.058-2.226 20.178-4.461 30.47-4.9a12.759 12.759 0 0 0 5.129-.884c1.57-.77 2.817-2.519 2.4-4.215a11.615 11.615 0 0 1 -12.121-4.572c14.281-1.178 29.47-2.183 42.125 4.537 1.519 3.26-6.222 5.973-4.151 8.914.661.938 1.984 1.048 3.131 1.069 8.795.163 17.64.323 26.336-1 3.178-.485 6.387-1.17 9.578-.777 5.314.655 9.859 4.2 15.087 5.357 2.128.471 4.514.486 6.307-.751s2.565-4.056 1.095-5.665c4.922-4.824 13.092-3.629 19.585-1.319s12.646 6.034 19.518 6.549c4.929.369 9.926-.957 14.8-.114 3.06.53 5.909 1.891 8.9 2.727 5.657 1.582 11.641 1.248 17.515 1.324a122.723 122.723 0 0 1 43.734 8.69 13 13 0 0 1 4.862 2.872 4.767 4.767 0 0 1 1.086 5.23l-14.389-2.1c1.356 2.669 4.863 3.124 7.711 4.044s5.8 4.066 4.09 6.522c-3.086-.983-5.883 2.1-7.442 4.942s-3.459 6.239-6.693 6.412c-2.9.155-6.4-2.311-8.286-.109a56.514 56.514 0 0 1 6.659 10.645c1.865 3.885 3.193 8.781.673 12.277a3.183 3.183 0 0 1 -1.7 1.319c-2.059.521-3.4-2-4.873-3.524-1.86-1.924-4.674-2.468-7.193-3.371s-5.173-2.677-5.371-5.346c-.123-1.66.754-3.2 1.4-4.739a18.258 18.258 0 0 0 1.387-8.189 9.3 9.3 0 0 0 -2.391-6.169c-1.618-1.574-4.411-2.073-6.147-.632-.81.673-1.46 1.748-2.512 1.789-1.859.071-3.287-3.171-4.783-2.064a5.083 5.083 0 0 1 -.691 3.4c-4.464 3.882-11.322 2.24-17.077 3.611a32.051 32.051 0 0 0 -7.791 3.4 5.013 5.013 0 0 0 -2.227 1.869c-.718 1.4.074 3.184 1.34 4.112a10.637 10.637 0 0 0 4.418 1.508c7.016 1.329 14.134 3.386 19.673 7.892s9.172 11.956 7.419 18.878l-13.836-13.22q.788 8.326.895 16.7a7.506 7.506 0 0 1 -.439 3.212c-.986 2.179-3.66 2.912-6 3.393a4.7 4.7 0 0 0 -3.609 6.024c.832 2.713 2.908 4.828 4.808 6.936s3.77 4.5 4.019 7.33-1.884 6.013-4.715 5.816c-2.146-.149-3.738-2.07-4.654-4.017s-1.46-4.115-2.835-5.769c-4.163-5.007-13.513-2.862-17.242-8.2a8.434 8.434 0 0 0 -1.744 8.026c1.735-1.086 4.11-.077 5.413 1.5s1.918 3.6 2.942 5.374c1.381 2.392 3.58 4.512 3.772 7.267a23.751 23.751 0 0 0 .053 3.125c.342 1.669 1.754 2.868 2.732 4.264 2.276 3.247 2.164 7.707.7 11.391s-4.1 6.762-6.714 9.747c-4.56 5.213-9.214 10.4-14.621 14.724a15.36 15.36 0 0 0 -4.15 4.177c-.961 1.727-1.01 4.151.466 5.465-1.057.053-2.951.573-4.008.625a93.175 93.175 0 0 1 -.253-12.754c-4.169-2-8.658 3.359-8.12 7.953s3.86 8.28 6.226 12.254c1.73 2.906 3.015 6.295 2.438 9.627s-3.552 6.407-6.921 6.113c-5.359-.467-7.6-8.161-12.908-9.042a2.169 2.169 0 0 0 -1.4.139c-.788.432-.925 1.486-.969 2.384-.217 4.405-.405 8.985 1.315 13.047 2.516 5.942 9.015 10.932 7.651 17.238-7.344-3.414-11.162-11.65-12.9-19.561s-2.023-16.216-5.13-23.695c-2.36 3.025-7.32.524-9.476-2.649-2.044-3.008-3.3-6.488-5.286-9.537s-5.021-5.779-8.654-5.946c-3.809-.176-7.113 2.438-10.018 4.908-2.389 2.031-4.842 4.142-6.238 6.949-2.032 4.085-1.5 8.9-1.6 13.463-.106 4.932-1.151 10.135-4.512 13.745s-9.565 4.868-13.273 1.614c-1.936-1.7-2.873-4.237-3.708-6.673a326.669 326.669 0 0 1 -10.033-35.831c-.623 2.767-3.053 6.334-5.375 4.7a4.813 4.813 0 0 1 -1.238-1.6c-4.33-7.339-12.35-11.742-20.452-14.381s-16.627-3.871-24.64-6.772a62.413 62.413 0 0 1 -12.782-6.367 10.053 10.053 0 0 0 -.614 10.283 8.191 8.191 0 0 0 9.242 3.868c1.779-.568 3.282-1.8 5.047-2.414s4.135-.31 4.907 1.39c.739 1.628-.378 3.6.176 5.3.844 2.589 4.748 2.788 6.114 5.144 1.016 1.753.18 4.08-1.271 5.495s-3.386 2.19-5.156 3.175c-5.745 3.195-9.83 8.648-14.851 12.891s-12.1 7.341-18.088 4.619c1.426-7.222-7.177-12.525-8.76-19.715-.521-2.366-.251-4.88-.995-7.186-1.077-3.339-4.039-5.635-6.469-8.165a32.045 32.045 0 0 1 -8.789-23.314c.131-2.971.677-5.991 0-8.887s-3.075-5.7-6.046-5.568c-6.787.3-15.336.8-18.9-4.981-1.271-2.065-1.824-5.089.014-6.671 1.3-1.116 3.209-1.011 4.911-.843l15.291 1.5c3.576.352 7.443.642 10.511-1.228s4.4-6.833 1.557-9.032c-2.076-1.607-5.8-1.52-6.4-4.076-.5-2.128 1.853-4.543.581-6.322-.912-1.275-2.963-.921-4.206.035s-2.145 2.354-3.536 3.078c-2.44 1.27-5.355.061-7.981-.76s-6.144-.891-7.418 1.547c-1.424 2.727 1.263 6.3-.15 9.032-1.869 3.613-8.2 1.556-10.82 4.663-3.011 3.566 2.049 8.883 1.034 13.438a8.365 8.365 0 0 1 -8.241-.463 8 8 0 0 1 -3.459-7.453c.251-2.049 1.32-4.141.6-6.077-.579-1.566-2.151-2.5-3.612-3.305l-14.86-8.211c-1.38 2.559.365 5.732 2.546 7.654s4.914 3.37 6.346 5.9a7.744 7.744 0 0 1 -2.914 10.21 1.788 1.788 0 0 1 -1.473.257 2.055 2.055 0 0 1 -.955-1.285c-2.622-6.71-6.558-13.325-12.852-16.83s-15.329-2.773-19.458 3.127c-.98 1.4-1.638 3-2.492 4.484-4.537 7.877-14.263 11.607-23.35 11.364a4.637 4.637 0 0 1 -2.547-.6c-1.469-1.014-1.4-3.167-1.178-4.937l.954-7.514c.192-1.509.469-3.177 1.663-4.119 1.683-1.328 4.112-.49 6.256-.521a7.928 7.928 0 0 0 7.2-5.554 8.935 8.935 0 0 0 -2.487-8.885c-.983-.923-2.3-2.082-1.782-3.326a2.75 2.75 0 0 1 1.928-1.3c3.851-1.118 7.92-1.411 11.706-2.731s7.459-4.019 8.356-7.927c.275-1.2.4-2.649 1.476-3.242a4.426 4.426 0 0 1 1.705-.348 8.3 8.3 0 0 0 7.119-8.652c1.815-1.268 4.357-.335 6.113 1.013s3.306 3.131 5.442 3.712c3.981 1.084 7.828-2.441 11.954-2.458 1.735-.007 3.531.607 5.163.018 1.655-.6 2.643-2.244 3.913-3.46s3.5-1.959 4.671-.648l-1-7.4a14.541 14.541 0 0 0 11.834-2.14l-12.906-4.361a2.807 2.807 0 0 1 -1.207-.645c-.938-1.01-.006-2.585.757-3.733 1.825-2.748 2.132-7.274-.87-8.642-2.049-.934-4.4.187-6.367 1.284l-9.42 5.252c-.3 1.791 1.89 2.805 3.247 4.011a5.444 5.444 0 0 1 -3.55 9.513 6.784 6.784 0 0 1 1.212 5.752l-6.338.456a2.746 2.746 0 0 1 -2.056-.4c-.678-.6-.586-1.657-.743-2.55-.379-2.155-2.489-3.666-4.643-4.053a16.33 16.33 0 0 0 -6.489.6 3.873 3.873 0 0 1 -2.79-.064 2.786 2.786 0 0 1 -1.1-1.393c-.935-2.267-.061-4.932 1.441-6.87s3.557-3.356 5.4-4.97a31.494 31.494 0 0 0 9.365-14.525c3.489-1.462 7.1-3.448 10.59-4.91a32.406 32.406 0 0 1 17.418-3.375l11.816.226c3.5.067 7.091.152 10.326 1.486s6.077 4.218 6.3 7.71a2.367 2.367 0 0 1 -.758 2.164 2.792 2.792 0 0 1 -1.494.337c-3.263.12-4.658.933-7.917 1.047z" transform="translate(-156.441 -215.85)"/><path d="m520.923 308.885a3.457 3.457 0 0 0 .943-3.477 6.468 6.468 0 0 0 -6.7 1.265 11.29 11.29 0 0 0 -1.794 2.372c-1.553 2.533-2.926 5.559-2.026 8.391a2.383 2.383 0 0 0 1.091 1.492 2.868 2.868 0 0 0 1.272.2 42.621 42.621 0 0 0 5.117-.315c1.043-.128 2.254-.422 2.657-1.392.53-1.275-.752-2.718-.379-4.047a4.422 4.422 0 0 1 1.092-1.564 2.067 2.067 0 0 0 .644-1.735c-.151-.624-1.106-.978-1.45-.436" transform="translate(-155.903 -229.826)"/><path d="m532.427 295.681a14.318 14.318 0 0 0 -4.637-.291 2.022 2.022 0 0 0 -.988.225 1.649 1.649 0 0 0 -.609.882 4.381 4.381 0 0 0 2.55 5.368 5.48 5.48 0 0 1 1.581.635c1.311 1.018.475 3.1.724 4.739.279 1.843 2.063 3.39 1.736 5.225-.258 1.446-1.8 2.59-1.553 4.038.26 1.516 2.184 1.971 3.717 2.093a4.675 4.675 0 0 0 2.634-.3 4.078 4.078 0 0 0 1.661-2.406 15.423 15.423 0 0 0 .777-5.807 5.507 5.507 0 0 0 -.655-2.563 14.314 14.314 0 0 0 -1.53-1.752c-2.935-3.421.156-8.518-5.408-10.086z" transform="translate(-158.538 -228.122)"/></g></svg>